<svg xmlns="http://www.w3.org/2000/svg" viewBox="0 0 500 500"><g id="freepik--Floor--inject-89"><path id="freepik--floor--inject-89" d="M79,246.8c-94.45,54.53-94.45,143,0,197.48s247.59,54.53,342,0,94.45-142.95,0-197.48S173.43,192.27,79,246.8Z" style="fill:#fafafa"></path></g><g id="freepik--Plants--inject-89"><g id="freepik--plants--inject-89"><path d="M52.37,336.65a.7.7,0,0,1-.23-.53C52.51,308,31,285.4,21.77,275.74c-1.49-1.56-2.66-2.8-3.41-3.69-3.32-4-4.43-8.93-2.95-13.17,1.32-3.81,4.65-6.55,9.11-7.5,10.92-2.32,26.1,12.51,34.55,33.77,11.85,29.78,2.7,49.86,2.6,50.06a.66.66,0,0,1-.52.39l-8.22,1.22a.82.82,0,0,1-.27,0A.8.8,0,0,1,52.37,336.65Zm5.41-51c-8.21-20.64-22.7-35.1-33-32.92-4,.86-6.91,3.2-8.09,6.6-1.31,3.77-.3,8.19,2.71,11.82.71.86,1.87,2.08,3.34,3.62,9.23,9.7,30.73,32.27,30.76,60.54l7-1C61.67,331.58,68.56,312.76,57.78,285.66Z" style="fill:#FF81AE"></path><path d="M57.32,336.11l.09,0a.7.7,0,0,0,.78-.61c4-32.43-15.17-66.1-29.62-74.15a.7.7,0,1,0-.68,1.22c14.29,8,32.73,42,28.92,72.76A.7.7,0,0,0,57.32,336.11Z" style="fill:#FF81AE"></path><path d="M60.87,335.59a.8.8,0,0,0,.31,0l5.59-1.07a.68.68,0,0,0,.51-.4c.13-.3,13-30.34,10.33-72.9C76.27,239.55,66,217.46,53.3,208.71c-6.13-4.21-12.48-5.32-18.86-3.31-3.6,1.13-6,3.12-7.11,5.9-3.07,7.67,3.9,20.32,11.28,33.7,5.17,9.37,10.5,19.05,12.53,27.32a.7.7,0,0,0,.84.51.69.69,0,0,0,.51-.84c-2.07-8.44-7.45-18.21-12.66-27.66-7.22-13.09-14-25.45-11.21-32.52,1-2.4,3-4.07,6.24-5.09,6-1.88,11.89-.82,17.65,3.13,12.42,8.54,22.4,30.18,23.71,51.47,2.47,39.82-8.69,68.52-10.08,71.92l-5.22,1a.71.71,0,0,0-.56.82A.72.72,0,0,0,60.87,335.59Z" style="fill:#FF81AE"></path><path d="M64.3,316h0a.7.7,0,0,0,.81-.55c9.39-49.84-14.41-93-22-100.82a.69.69,0,1,0-1,1c7.46,7.67,30.89,50.3,21.6,99.6A.7.7,0,0,0,64.3,316Z" style="fill:#FF81AE"></path></g></g><g id="freepik--Shadows--inject-89"><ellipse id="freepik--Shadow--inject-89" cx="421.55" cy="406.63" rx="63.92" ry="36.9" style="fill:#e0e0e0"></ellipse><path id="freepik--shadow--inject-89" d="M277.63,258c-15-8.68-37.51-10.4-55.51-5.19-39.69-11.54-89.33-7.76-122.47,11.37-28.32,16.36-37.24,39.67-26.74,60.41a63.55,63.55,0,0,0-23,7.39c-18.76,10.84-18.76,28.4,0,39.23s49.19,10.84,68,0a32.75,32.75,0,0,0,10.32-8.87c39.47,11.1,88.41,7.2,121.2-11.73,25.45-14.69,35.23-35,29.33-54C296.37,285.68,296,268.59,277.63,258Z" style="fill:#e0e0e0"></path><path id="freepik--shadow--inject-89" d="M87.52,435.43c24,13.87,63,13.87,87,0s24-36.36,0-50.23-63-13.88-87,0S63.5,421.56,87.52,435.43Z" style="fill:#e0e0e0"></path><path id="freepik--shadow--inject-89" d="M305,242.78c11.57,6.68,11.57,17.52,0,24.2s-30.34,6.68-41.91,0-11.58-17.52,0-24.2S293.38,236.1,305,242.78Z" style="fill:#e0e0e0"></path><path id="freepik--shadow--inject-89" d="M315,252.7c13.75,7.94,36,7.94,49.79,0s13.74-20.8,0-28.74-36-7.94-49.79,0S301.29,244.77,315,252.7Z" style="fill:#e0e0e0"></path></g><g id="freepik--product-3--inject-89"><g id="freepik--Bottle--inject-89"><path d="M309.27,234.35V132.26a30.66,30.66,0,0,1,61.31,0V234.35c0,4.53-3,9.06-9,12.51-12,6.92-31.38,6.92-43.35,0C312.27,243.41,309.27,238.88,309.27,234.35Z" style="fill:#FF81AE"></path><path d="M309.27,234.35V132.26a30.66,30.66,0,0,1,61.31,0V234.35c0,4.53-3,9.06-9,12.51-12,6.92-31.38,6.92-43.35,0C312.27,243.41,309.27,238.88,309.27,234.35Z" style="fill:#fff;opacity:0.8"></path><path d="M320.86,165.24v63.95c0,15.53,27.54,22.86,45.29,14.29a23.4,23.4,0,0,1-4.55,3.38c-12,6.92-31.38,6.92-43.35,0-6-3.45-9-8-9-12.51V132.26a30.66,30.66,0,0,1,30.66-30.65v8.72C323.65,122.08,320.86,127.19,320.86,165.24Z" style="fill:#FF81AE;opacity:0.2"></path><path d="M318.25,165.17c12,6.91,31.38,6.91,43.35,0,6-3.46,9-8,9-12.52v38.57c0,4.53-3,9.07-9,12.52-12,6.91-31.38,6.91-43.35,0-6-3.45-9-8-9-12.51V152.66C309.27,157.19,312.27,161.71,318.25,165.17Z" style="fill:#fafafa"></path><path d="M318.25,165.17c.81.47,1.73.82,2.61,1.23V205c-.88-.4-1.8-.76-2.61-1.23-6-3.45-9-8-9-12.51V152.66C309.27,157.19,312.27,161.71,318.25,165.17Z" style="fill:#ebebeb"></path><path d="M317.59,180.36a.26.26,0,0,1,.14-.21.36.36,0,0,1,.25,0l1.08.41a.68.68,0,0,1,.26.2.49.49,0,0,1,.1.3,2.67,2.67,0,0,1-.28,1,1.59,1.59,0,0,1-.71.74,2.32,2.32,0,0,1-1.2.26,4.47,4.47,0,0,1-1.75-.45,6.43,6.43,0,0,1-1.59-1,6.7,6.7,0,0,1-1.16-1.35,6.35,6.35,0,0,1-.73-1.56,6.49,6.49,0,0,1-.32-1.67c0-.35,0-.74,0-1.15s0-.8,0-1.13a3.52,3.52,0,0,1,.32-1.34,1.73,1.73,0,0,1,.73-.82,2.12,2.12,0,0,1,1.16-.2,5,5,0,0,1,1.59.45,7.92,7.92,0,0,1,1.75,1,6.85,6.85,0,0,1,1.2,1.21,4.63,4.63,0,0,1,.71,1.27,4.55,4.55,0,0,1,.28,1.21.24.24,0,0,1-.1.23.3.3,0,0,1-.26,0l-1.08-.4a.72.72,0,0,1-.25-.19.63.63,0,0,1-.15-.32,2.11,2.11,0,0,0-.18-.61,2.83,2.83,0,0,0-.4-.62,4.57,4.57,0,0,0-.63-.6,4.42,4.42,0,0,0-.89-.51,2.53,2.53,0,0,0-.89-.24,1.13,1.13,0,0,0-.63.14,1,1,0,0,0-.38.47,2,2,0,0,0-.17.72c0,.33,0,.71,0,1.13s0,.8,0,1.15a3.89,3.89,0,0,0,.55,1.72,3.88,3.88,0,0,0,.63.73,3.46,3.46,0,0,0,.89.56,3.17,3.17,0,0,0,.89.26,1.57,1.57,0,0,0,.64-.07.94.94,0,0,0,.4-.3A.9.9,0,0,0,317.59,180.36Z" style="fill:#e0e0e0"></path><path d="M322.62,184.75a.25.25,0,0,1-.11.22.26.26,0,0,1-.26,0l-1-.33a.48.48,0,0,1-.26-.19.5.5,0,0,1-.11-.3v-8.9a.25.25,0,0,1,.11-.22.29.29,0,0,1,.26,0l1,.33a.51.51,0,0,1,.26.18.5.5,0,0,1,.11.29Z" style="fill:#e0e0e0"></path><path d="M324.14,182a3.72,3.72,0,0,1,.23-1.37,2.35,2.35,0,0,1,.67-1,2.25,2.25,0,0,1,1.06-.52,3.12,3.12,0,0,1,1.39,0,4.11,4.11,0,0,1,1.4.56,4.2,4.2,0,0,1,1.07.93,4.06,4.06,0,0,1,.93,2.57v.61a.3.3,0,0,1-.11.24.27.27,0,0,1-.26.07c-1.85-.29-2.78-.47-4.61-.91a1.41,1.41,0,0,0,.13.58,1.85,1.85,0,0,0,.35.48,1.82,1.82,0,0,0,.51.36,2.19,2.19,0,0,0,.59.21,2.44,2.44,0,0,0,.72.06,1.09,1.09,0,0,0,.45-.14,1.83,1.83,0,0,1,.25-.1.79.79,0,0,1,.26,0l1.11.19a.41.41,0,0,1,.27.15.38.38,0,0,1,.11.27,1.11,1.11,0,0,1-.22.46,1.67,1.67,0,0,1-.6.48,3.2,3.2,0,0,1-1,.32,3.8,3.8,0,0,1-1.36-.07A4,4,0,0,1,325,184.9a4.5,4.5,0,0,1-.67-1.33A5,5,0,0,1,324.14,182Zm3.35-1.23a1.6,1.6,0,0,0-.68,0,1.11,1.11,0,0,0-.47.19.89.89,0,0,0-.3.34,1.2,1.2,0,0,0-.13.39c1.24.3,1.86.43,3.11.66a2.84,2.84,0,0,0-.1-.45,1.26,1.26,0,0,0-.25-.45,1.74,1.74,0,0,0-.45-.39A2.38,2.38,0,0,0,327.49,180.79Z" style="fill:#e0e0e0"></path><path d="M332.4,181.86a1.74,1.74,0,0,1,.26-.58,2.31,2.31,0,0,1,.57-.55,3,3,0,0,1,.91-.37,4.11,4.11,0,0,1,1.25-.08,4.91,4.91,0,0,1,1.28.27,3,3,0,0,1,1,.58,2.44,2.44,0,0,1,.63.91,3.17,3.17,0,0,1,.23,1.23v4a.36.36,0,0,1-.11.26.39.39,0,0,1-.27.1l-1.06,0a.37.37,0,0,1-.27-.12.4.4,0,0,1-.11-.27v-.44a2.12,2.12,0,0,1-.84.62,2.81,2.81,0,0,1-1.41.16,3.23,3.23,0,0,1-1.07-.26,2.54,2.54,0,0,1-.79-.53,2.23,2.23,0,0,1-.67-1.61,1.55,1.55,0,0,1,.68-1.38,3.92,3.92,0,0,1,1.82-.52c.91-.07,1.37-.11,2.28-.22a.88.88,0,0,0-.38-.8,1.9,1.9,0,0,0-.93-.3,1.29,1.29,0,0,0-.55.05,1.62,1.62,0,0,0-.37.23.93.93,0,0,1-.23.13.59.59,0,0,1-.23,0c-.52-.05-.78-.07-1.3-.14a.38.38,0,0,1-.24-.11A.26.26,0,0,1,332.4,181.86Zm2.33,4.07a2.32,2.32,0,0,0,.85-.06,1.72,1.72,0,0,0,.62-.31,1.24,1.24,0,0,0,.37-.46,1.2,1.2,0,0,0,.13-.55v-.14l-1.9.2a1.84,1.84,0,0,0-.82.2.51.51,0,0,0-.25.47.5.5,0,0,0,.3.45A1.69,1.69,0,0,0,334.73,185.93Z" style="fill:#e0e0e0"></path><path d="M347.19,186.84a.43.43,0,0,1-.37.41l-1.06.12a.34.34,0,0,1-.27-.09.33.33,0,0,1-.11-.25v-3.44a1.87,1.87,0,0,0-.39-1.27,1.34,1.34,0,0,0-1.2-.4,1.59,1.59,0,0,0-1.17.55,2,2,0,0,0-.42,1.32v3.45a.36.36,0,0,1-.11.26.42.42,0,0,1-.27.12l-1.06,0a.36.36,0,0,1-.38-.36V181a.38.38,0,0,1,.11-.26.39.39,0,0,1,.27-.11l1.06,0a.39.39,0,0,1,.27.1.34.34,0,0,1,.11.25v.31a3.39,3.39,0,0,1,.85-.62,2.91,2.91,0,0,1,1.16-.3,3.62,3.62,0,0,1,1.42.14,2.14,2.14,0,0,1,.92.6,2.23,2.23,0,0,1,.5,1,4.7,4.7,0,0,1,.14,1.2Z" style="fill:#e0e0e0"></path><path d="M353,184.21a.26.26,0,0,0-.1-.23.67.67,0,0,0-.33-.1,5.48,5.48,0,0,0-.64,0l-1,0a3.88,3.88,0,0,1-1-.16,1.81,1.81,0,0,1-.64-.38,1.28,1.28,0,0,1-.34-.56,2.82,2.82,0,0,1-.1-.74,2,2,0,0,1,.2-.83,2.73,2.73,0,0,1,.56-.79,3.56,3.56,0,0,1,.89-.64,4.25,4.25,0,0,1,1.2-.42,4.84,4.84,0,0,1,1.21-.1,2.86,2.86,0,0,1,.9.19,1.41,1.41,0,0,1,.57.43,1,1,0,0,1,.23.58.37.37,0,0,1-.1.29.47.47,0,0,1-.26.17l-1.06.25a.45.45,0,0,1-.31,0l-.23-.12a.86.86,0,0,0-.33-.1,2.17,2.17,0,0,0-.62.05,2.62,2.62,0,0,0-.73.26.55.55,0,0,0-.31.49.36.36,0,0,0,.07.24.52.52,0,0,0,.29.13,3.71,3.71,0,0,0,.59.06h1a2.65,2.65,0,0,1,1.72.41,1.56,1.56,0,0,1,.5,1.24,2.07,2.07,0,0,1-.2.85,3.27,3.27,0,0,1-.6.84,4.27,4.27,0,0,1-1,.71,4.9,4.9,0,0,1-1.29.45,3.87,3.87,0,0,1-1.29.07,2.8,2.8,0,0,1-.95-.28,1.59,1.59,0,0,1-.59-.52,1.23,1.23,0,0,1-.22-.63.35.35,0,0,1,.1-.28.52.52,0,0,1,.27-.15c.43-.06.64-.09,1.07-.17a.43.43,0,0,1,.31,0l.23.18a.84.84,0,0,0,.37.15,2,2,0,0,0,.7,0l.43-.11a2.54,2.54,0,0,0,.41-.18,1.19,1.19,0,0,0,.31-.23A.39.39,0,0,0,353,184.21Z" style="fill:#e0e0e0"></path><path d="M355.83,182a4.8,4.8,0,0,1,.24-1.5,4.9,4.9,0,0,1,.66-1.36,5.16,5.16,0,0,1,1-1.09,4.63,4.63,0,0,1,1.37-.73,3.41,3.41,0,0,1,1.36-.19,2.11,2.11,0,0,1,1,.36,1.91,1.91,0,0,1,.65.84,3,3,0,0,1,.24,1.23v.62a.55.55,0,0,1-.11.3.48.48,0,0,1-.25.2c-1.77.7-2.66,1-4.47,1.57a.92.92,0,0,0,.13.51.74.74,0,0,0,.34.29,1.15,1.15,0,0,0,.5.08,1.75,1.75,0,0,0,.58-.11,2.7,2.7,0,0,0,.7-.32,2.8,2.8,0,0,0,.44-.38,1.78,1.78,0,0,1,.24-.24.83.83,0,0,1,.25-.13l1.06-.4a.29.29,0,0,1,.26,0,.21.21,0,0,1,.1.22,1.85,1.85,0,0,1-.2.57,4,4,0,0,1-.58.81,5.68,5.68,0,0,1-.95.84,4.8,4.8,0,0,1-1.32.66,3.11,3.11,0,0,1-1.37.18,2,2,0,0,1-1-.44,2.27,2.27,0,0,1-.66-1A3.88,3.88,0,0,1,355.83,182Zm3.32-3.05a2.48,2.48,0,0,0-.67.34,2.16,2.16,0,0,0-.75.94,2,2,0,0,0-.13.47c1.22-.38,1.83-.58,3-1a1.4,1.4,0,0,0-.1-.39.64.64,0,0,0-.24-.32.79.79,0,0,0-.44-.14A1.86,1.86,0,0,0,359.15,178.94Z" style="fill:#e0e0e0"></path><path d="M367,175.8a2.77,2.77,0,0,0-1.12.91,2.37,2.37,0,0,0-.34,1.33v3.53a.56.56,0,0,1-.11.31.55.55,0,0,1-.24.22l-1,.45a.27.27,0,0,1-.25,0,.22.22,0,0,1-.11-.21V176a.53.53,0,0,1,.11-.3.58.58,0,0,1,.25-.22l1-.45a.25.25,0,0,1,.24,0,.22.22,0,0,1,.11.21v.31a5.42,5.42,0,0,1,.71-.84,4.47,4.47,0,0,1,1-.68l.58-.29a.23.23,0,0,1,.24,0,.2.2,0,0,1,.1.2v.9a.57.57,0,0,1-.1.31.69.69,0,0,1-.24.24Z" style="fill:#e0e0e0"></path><g id="freepik--Soap--inject-89"><path d="M325.26,93V108c0,2.16,1.43,4.33,4.29,6,5.71,3.3,15,3.3,20.68,0,2.85-1.64,4.28-3.81,4.28-6V93Z" style="fill:#37474f"></path><path d="M329.55,99c5.71,3.3,15,3.3,20.68,0s5.71-8.64,0-11.94-15-3.29-20.68,0S323.84,95.7,329.55,99Z" style="fill:#455a64"></path><path d="M335.54,72.43V93.21A2.17,2.17,0,0,0,336.81,95,6.8,6.8,0,0,0,343,95a2.16,2.16,0,0,0,1.28-1.77V72.43Z" style="fill:#37474f"></path><path d="M335.54,85.32l.71.08a71.75,71.75,0,0,1,8,1v-14h-8.7Z" style="fill:#263238"></path><path d="M366.34,83.42l-3-2.13a18.08,18.08,0,0,1-7.5-11.14c-.48-2.14-2.37-4.09-5.75-5.38-4.85-1.86-11.86-1.65-17.33.54-9.08,3.63-10.81,10.46-4.39,14.16a18.37,18.37,0,0,0,7.89,2.15c7.12.46,13.77,1.81,19,4.3L359,87.66C362.86,87.56,365.23,86.06,366.34,83.42Z" style="fill:#455a64"></path></g></g></g><g id="freepik--product-2--inject-89"><g id="freepik--Tube--inject-89"><path d="M304.29,252.11h0v-19.7H263.62v19.7h0c0,3.5,1.57,6.73,6,9.26,8,4.6,20.86,4.6,28.82,0C302.8,258.84,304.29,255.45,304.29,252.11Z" style="fill:#FF81AE"></path><path d="M263.62,252.11c0,3.5,1.57,6.73,6,9.26,8,4.6,20.86,4.6,28.82,0,4.4-2.53,5.89-5.92,5.89-9.26" style="fill:#FF81AE"></path><path d="M298.4,255c-8,4.6-20.86,4.6-28.82,0-4.39-2.54-6-5.76-6-9.26v1.59c0,3.5,1.57,6.72,6,9.26,8,4.59,20.86,4.59,28.82,0,4.4-2.54,5.89-5.92,5.89-9.26v-1.59C304.29,249.1,302.8,252.48,298.4,255Z" style="opacity:0.15"></path><path d="M258.13,105.4a6.08,6.08,0,0,1,2.76-4.77L307.1,74c1.52-.88,2.75-.17,2.75,1.59V87.29l-51.72,29.86Z" style="fill:#e6e6e6"></path><path d="M284,247.74c-7.24,0-14-1.62-19.14-4.57s-7.78-6.71-7.78-10.75l1.57-115,50.71-29.28,1.56,144.26c0,4-2.76,7.85-7.78,10.75S291.23,247.74,284,247.74Z" style="fill:#f5f5f5"></path><path d="M308.85,89l1.55,143.37c0,3.85-2.67,7.52-7.52,10.32-5,2.9-11.74,4.5-18.89,4.5s-13.85-1.6-18.88-4.5c-4.86-2.8-7.53-6.46-7.53-10.3l1.56-114.69L308.85,89m1-1.75-51.72,29.86-1.57,115.26h0c0,4.05,2.68,8.1,8,11.19S277,248.25,284,248.25s14-1.54,19.4-4.64,8-7.14,8-11.2L309.85,87.29Z" style="fill:#e0e0e0"></path><path d="M278,190.84c-2.06,0-3.72.95-3.72,2.38S275.91,196,278,196c8.48.18,17-1.56,23.52-5.3,6.18-3.57,9.35-8.2,9.35-12.88l0-5.21c0,4.68-3.12,9.37-9.3,12.94C295,189.29,286.45,191,278,190.84Z" style="fill:#FF81AE"></path><polygon points="298.97 152.41 298.97 142.36 291.42 146.71 291.42 156.77 283.88 161.13 283.88 171.18 291.42 166.83 291.42 176.88 298.97 172.53 298.97 162.47 306.51 158.12 306.51 148.06 298.97 152.41" style="fill:#FF81AE"></polygon></g></g><g id="freepik--magnifying-glass--inject-89"><g id="freepik--magnifying-glass--inject-89"><path d="M381.77,293.21h0a3.15,3.15,0,0,1-3.18-.31,10,10,0,0,1-4.52-7.78,3.15,3.15,0,0,1,1.32-2.91h0l69.53-41.43h0c1.14-.77,2.78-.73,4.6.32A13.87,13.87,0,0,1,455.84,252c0,2.11-.77,3.55-2,4.16h0Z" style="fill:#455a64"></path><path d="M374.07,285.12c0-2.87,2-4,4.5-2.61a10,10,0,0,1,4.51,7.79c0,2.86-2,4-4.49,2.6A10,10,0,0,1,374.07,285.12Z" style="fill:#37474f"></path><path d="M369.49,296.12a6,6,0,0,1-2.73-4.71,1.93,1.93,0,0,1,.79-1.76h0l9.1-5.27h0a1.92,1.92,0,0,1,1.92.19,6,6,0,0,1,2.73,4.7,1.9,1.9,0,0,1-.79,1.76l-9.09,5.28h0A1.94,1.94,0,0,1,369.49,296.12Z" style="fill:#FF81AE"></path><path d="M369.49,296.12a6,6,0,0,1-2.73-4.71,1.93,1.93,0,0,1,.79-1.76h0l9.1-5.27h0a1.92,1.92,0,0,1,1.92.19,6,6,0,0,1,2.73,4.7,1.9,1.9,0,0,1-.79,1.76l-9.09,5.28h0A1.94,1.94,0,0,1,369.49,296.12Z" style="opacity:0.2"></path><path d="M374.72,287.17c-.41-.32-.83-.64-1.27-.95l-5.86,3.41a33.52,33.52,0,0,1,6.52,5.11l5.37-3.12c-.15-.17-.28-.34-.44-.5A33.87,33.87,0,0,0,374.72,287.17Z" style="opacity:0.2"></path><path d="M380.68,284.34l71.15-41.4a10.57,10.57,0,0,0-2.3-1.83c-1.82-1.05-3.46-1.09-4.61-.32h0L375.39,282.2a3.17,3.17,0,0,1,3.18.31A8.39,8.39,0,0,1,380.68,284.34Z" style="opacity:0.15"></path><path d="M379.42,304.46c0-.19,0-.34,0-.44s0-.37,0-.55c0-.44-.07-.87-.13-1.29,0-.16,0-.32-.08-.49a16.33,16.33,0,0,0-.44-1.77c-.06-.17-.11-.33-.16-.49-.16-.43-.33-.87-.52-1.29l-.21-.45-.21-.41a5.33,5.33,0,0,0-.31-.57c-.1-.19-.21-.37-.33-.56l-.35-.56a20,20,0,0,0-2.15-2.73,26.36,26.36,0,0,0-3.4-3.1,36.38,36.38,0,0,0-4.27-2.84c-16.69-9.53-43.6-9.53-60.1,0-.42.24-.82.48-1.21.73a33.66,33.66,0,0,0-4.19,3.08c-.37.33-.74.66-1.08,1a23.75,23.75,0,0,0-2.39,2.72l-.37.51c-.17.23-.32.46-.47.7s-.4.65-.58,1-.39.72-.56,1.09a4,4,0,0,0-.21.47c-.1.22-.19.44-.27.67a4.84,4.84,0,0,0-.18.49,14.82,14.82,0,0,0-.77,3.56c0,.12,0,.25,0,.38s0,.56,0,.83c0,1,0,5.71,0,6.57,0,6.3,4.15,12.62,12.51,17.45,16.6,9.58,43.51,9.58,60.1,0,8.39-4.83,12.51-11.18,12.4-17.5C379.4,309.92,379.43,306,379.42,304.46Zm-70.3-13.4c7.27-4.19,17.07-6.5,27.59-6.5s20.4,2.31,27.76,6.51c6.55,3.73,10.16,8.41,10.17,13.18s-3.54,9.39-10,13.13c-7.31,4.22-17.13,6.55-27.66,6.55s-20.35-2.33-27.66-6.55c-6.53-3.77-10.12-8.48-10.12-13.26S302.72,294.76,309.12,291.06Z" style="fill:#FF81AE"></path><path d="M379.42,304.46c0-.19,0-.34,0-.44s0-.37,0-.55c0-.44-.07-.87-.13-1.29,0-.16,0-.32-.08-.49a16.33,16.33,0,0,0-.44-1.77c-.06-.17-.11-.33-.16-.49-.16-.43-.33-.87-.52-1.29l-.21-.45-.21-.41a5.33,5.33,0,0,0-.31-.57c-.1-.19-.21-.37-.33-.56l-.35-.56a20,20,0,0,0-2.15-2.73,26.36,26.36,0,0,0-3.4-3.1,36.38,36.38,0,0,0-4.27-2.84c-16.69-9.53-43.6-9.53-60.1,0-.42.24-.82.48-1.21.73a33.66,33.66,0,0,0-4.19,3.08c-.37.33-.74.66-1.08,1a23.75,23.75,0,0,0-2.39,2.72l-.37.51c-.17.23-.32.46-.47.7s-.4.65-.58,1-.39.72-.56,1.09a4,4,0,0,0-.21.47c-.1.22-.19.44-.27.67a4.84,4.84,0,0,0-.18.49,14.82,14.82,0,0,0-.77,3.56c0,.12,0,.25,0,.38s0,.56,0,.83c0,1,0,5.71,0,6.57,0,6.3,4.15,12.62,12.51,17.45,16.6,9.58,43.51,9.58,60.1,0,8.39-4.83,12.51-11.18,12.4-17.5C379.4,309.92,379.43,306,379.42,304.46Zm-70.3-13.4c7.27-4.19,17.07-6.5,27.59-6.5s20.4,2.31,27.76,6.51c6.55,3.73,10.16,8.41,10.17,13.18s-3.54,9.39-10,13.13c-7.31,4.22-17.13,6.55-27.66,6.55s-20.35-2.33-27.66-6.55c-6.53-3.77-10.12-8.48-10.12-13.26S302.72,294.76,309.12,291.06Z" style="fill:#fff;opacity:0.25"></path><path d="M379.42,304.46h-4.78c0,4.73-3.54,9.18-10,12.92-7.09,4.1-16.55,6.4-26.73,6.53v11.41c10.57-.14,21.06-2.52,29.12-7.18,8.39-4.83,12.51-11.18,12.4-17.5C379.4,309.92,379.43,306,379.42,304.46Z" style="fill:#FF81AE"></path><path d="M379.42,304c0-.19,0-.37,0-.55,0-.44-.07-.87-.13-1.29,0-.16,0-.32-.08-.49a16.33,16.33,0,0,0-.44-1.77c-.06-.17-.11-.33-.16-.49-.16-.43-.33-.87-.52-1.29l-.21-.45-.21-.41a5.33,5.33,0,0,0-.31-.57c-.1-.19-.21-.37-.33-.56l-.35-.56a20,20,0,0,0-2.15-2.73,26.36,26.36,0,0,0-3.4-3.1,36.38,36.38,0,0,0-4.27-2.84c-16.69-9.53-43.6-9.53-60.1,0-.42.24-.82.48-1.21.73a33.66,33.66,0,0,0-4.19,3.08c-.37.33-.74.66-1.08,1a23.75,23.75,0,0,0-2.39,2.72l-.37.51c-.17.23-.32.46-.47.7s-.4.65-.58,1-.39.72-.56,1.09a4,4,0,0,0-.21.47c-.1.22-.19.44-.27.67a4.84,4.84,0,0,0-.18.49,14.82,14.82,0,0,0-.77,3.56c0,.12,0,.25,0,.38s0,.56,0,.83c0,6.29,4.17,12.59,12.51,17.4,16.6,9.58,43.51,9.58,60.1,0,8.19-4.72,12.32-10.88,12.4-17.06C379.43,304.27,379.42,304.12,379.42,304Zm-14.79,13.36c-7.31,4.22-17.13,6.55-27.66,6.55s-20.35-2.33-27.66-6.55c-6.53-3.77-10.12-8.48-10.12-13.26s3.53-9.36,9.93-13.06c7.27-4.19,17.07-6.5,27.59-6.5s20.4,2.31,27.76,6.51c6.55,3.73,10.16,8.41,10.17,13.18S371.1,313.64,364.63,317.38Z" style="fill:#FF81AE"></path><path d="M379.42,304c0-.19,0-.37,0-.55,0-.44-.07-.87-.13-1.29,0-.16,0-.32-.08-.49a16.33,16.33,0,0,0-.44-1.77c-.06-.17-.11-.33-.16-.49-.16-.43-.33-.87-.52-1.29l-.21-.45-.21-.41a5.33,5.33,0,0,0-.31-.57c-.1-.19-.21-.37-.33-.56l-.35-.56a20,20,0,0,0-2.15-2.73,26.36,26.36,0,0,0-3.4-3.1,36.38,36.38,0,0,0-4.27-2.84c-16.69-9.53-43.6-9.53-60.1,0-.42.24-.82.48-1.21.73a33.66,33.66,0,0,0-4.19,3.08c-.37.33-.74.66-1.08,1a23.75,23.75,0,0,0-2.39,2.72l-.37.51c-.17.23-.32.46-.47.7s-.4.65-.58,1-.39.72-.56,1.09a4,4,0,0,0-.21.47c-.1.22-.19.44-.27.67a4.84,4.84,0,0,0-.18.49,14.82,14.82,0,0,0-.77,3.56c0,.12,0,.25,0,.38s0,.56,0,.83c0,6.29,4.17,12.59,12.51,17.4,16.6,9.58,43.51,9.58,60.1,0,8.19-4.72,12.32-10.88,12.4-17.06C379.43,304.27,379.42,304.12,379.42,304Zm-14.79,13.36c-7.31,4.22-17.13,6.55-27.66,6.55s-20.35-2.33-27.66-6.55c-6.53-3.77-10.12-8.48-10.12-13.26s3.53-9.36,9.93-13.06c7.27-4.19,17.07-6.5,27.59-6.5s20.4,2.31,27.76,6.51c6.55,3.73,10.16,8.41,10.17,13.18S371.1,313.64,364.63,317.38Z" style="fill:#fff;opacity:0.45"></path><path d="M374.64,304.25a9.42,9.42,0,0,1-.3,2.41c-1-3.93-4.41-7.7-9.87-10.81-7.36-4.2-17.22-6.51-27.76-6.51s-20.32,2.31-27.59,6.51c-5.32,3.06-8.65,6.78-9.62,10.66a9.33,9.33,0,0,1-.31-2.39c0-4.73,3.53-9.36,9.93-13.06,7.27-4.19,17.07-6.5,27.59-6.5s20.4,2.31,27.76,6.51C371,294.8,374.63,299.48,374.64,304.25Z" style="fill:#FF81AE"></path><path d="M374.64,304.25a9.42,9.42,0,0,1-.3,2.41c-1-3.93-4.41-7.7-9.87-10.81-7.36-4.2-17.22-6.51-27.76-6.51s-20.32,2.31-27.59,6.51c-5.32,3.06-8.65,6.78-9.62,10.66a9.33,9.33,0,0,1-.31-2.39c0-4.73,3.53-9.36,9.93-13.06,7.27-4.19,17.07-6.5,27.59-6.5s20.4,2.31,27.76,6.51C371,294.8,374.63,299.48,374.64,304.25Z" style="fill:#fff;opacity:0.25"></path><path d="M374.57,305.49c-.57,4.3-4,8.48-9.94,11.89-7.31,4.22-17.13,6.55-27.66,6.55s-20.35-2.33-27.66-6.55c-6-3.45-9.49-7.69-10-12.05.55-4.31,4-8.47,9.85-11.85,7.27-4.2,17.07-6.51,27.59-6.51s20.4,2.31,27.76,6.51C370.49,296.91,374,301.13,374.57,305.49Z" style="fill:#fff;opacity:0.55"></path></g></g><g id="freepik--Pills--inject-89"><g id="freepik--Capsules--inject-89"><path d="M357.92,381.35l-93.11,53.76a11.09,11.09,0,0,1-10,.06L204.3,406.42c-2.74-1.56-2.72-4.11,0-5.71L297.45,347a11.1,11.1,0,0,1,9.95-.07L358,375.65C360.69,377.21,360.68,379.76,357.92,381.35Z" style="fill:#f0f0f0"></path><path d="M259.76,433.22a9.72,9.72,0,0,1-4.68-1.09l-50.55-28.75a3,3,0,0,1-1.83-2.46,3.12,3.12,0,0,1,1.87-2.52l93.11-53.75a9.8,9.8,0,0,1,4.85-1.16,9.69,9.69,0,0,1,4.68,1.09l50.56,28.76a3,3,0,0,1,1.82,2.45,3.11,3.11,0,0,1-1.86,2.52l-93.11,53.76A10,10,0,0,1,259.76,433.22Z" style="fill:#fff"></path><path d="M302.53,343.91h0a9.2,9.2,0,0,1,4.47,1l50.56,28.75c1,.6,1.61,1.34,1.61,2.09s-.6,1.54-1.66,2.15l-93.1,53.76a9.63,9.63,0,0,1-4.65,1.1,9.23,9.23,0,0,1-4.47-1L204.74,403c-1-.59-1.62-1.33-1.62-2.09a2.77,2.77,0,0,1,1.66-2.15L297.89,345a9.56,9.56,0,0,1,4.64-1.1m0-.84a10.29,10.29,0,0,0-5.06,1.21L204.36,398c-2.76,1.59-2.78,4.14,0,5.7l50.55,28.76a10.21,10.21,0,0,0,4.89,1.15,10.36,10.36,0,0,0,5.07-1.22l93.11-53.76c2.76-1.59,2.77-4.14,0-5.7l-50.55-28.75a10.09,10.09,0,0,0-4.89-1.15Z" style="fill:#e0e0e0"></path><path d="M254.87,432.5l-45.59-25.93h0c14.36,7.23,41.63,22.73,45.66,24.27s6.43,2.2,14-2.15,83.88-47.05,83.88-47.05l-88,50.79A11.12,11.12,0,0,1,254.87,432.5Z" style="fill:#fafafa"></path><path d="M232.31,414.55a1.36,1.36,0,0,0,1.24,0l92.82-53.59c.35-.2.37-.52,0-.71a1.42,1.42,0,0,0-1.24,0l-92.81,53.59C232,414,232,414.36,232.31,414.55Z" style="fill:#e0e0e0"></path><path d="M307.15,365.34h0a5.94,5.94,0,0,1-.92.44l-.36.14a11.06,11.06,0,0,1-8.36-.69l-8.69-4.94-.07-.05a6.08,6.08,0,0,1-2.51-2.37,6.21,6.21,0,0,1,2.34-8.46,5.94,5.94,0,0,1,.92-.43l.36-.13a11,11,0,0,1,8.36.68l8.69,4.94.07,0a6.1,6.1,0,0,1,2.51,2.38,6.2,6.2,0,0,1-2.34,8.45Z" style="fill:#fafafa;mix-blend-mode:hard-light;opacity:0.7000000000000001"></path><path d="M288.55,354.76a10.77,10.77,0,0,1,9.64.11l8.69,4.95c2.74,1.55,2.86,4,.27,5.52a10.7,10.7,0,0,1-9.64-.11l-8.69-4.94C286.08,358.73,286,356.25,288.55,354.76Z" style="fill:#e0e0e0"></path><path d="M286.12,357.63a6.2,6.2,0,0,1,2.46-8.22,5.94,5.94,0,0,1,.92-.43l.36-.13a11.39,11.39,0,0,1,7.29.18c-4.09-.39-6.61-.49-9.18,1.67A6.28,6.28,0,0,0,286.12,357.63Z" style="fill:#fff"></path><path d="M301.67,353.39a2.59,2.59,0,0,0-2.57.27,8.13,8.13,0,0,0-3.69,6.29,2.5,2.5,0,0,0,1.06,2.33l4.67,2.65A5.22,5.22,0,0,0,308.2,363a5.06,5.06,0,0,0-1.85-7Z" style="fill:#f5f5f5"></path><path d="M295.24,349.74a5.22,5.22,0,0,0-7.06,1.92,5.06,5.06,0,0,0,1.84,7l6.45,3.64a2.5,2.5,0,0,1-1.06-2.33,8.13,8.13,0,0,1,3.69-6.29,2.59,2.59,0,0,1,2.57-.27Z" style="fill:#FF81AE"></path><path d="M289.23,354.53a2,2,0,0,1,2.7-.74l7.79,4.41a7.57,7.57,0,0,1-2.6,2.72l-.31.17-6.87-3.89A1.94,1.94,0,0,1,289.23,354.53Z" style="fill:#fff;opacity:0.4"></path><path d="M301.67,353.39a2.59,2.59,0,0,0-2.57.27,8.13,8.13,0,0,0-3.69,6.29,2.5,2.5,0,0,0,1.06,2.33l4.67,2.65A5.22,5.22,0,0,0,308.2,363a5.06,5.06,0,0,0-1.85-7Z" style="fill:#f5f5f5"></path><path d="M295.41,360a8.13,8.13,0,0,1,3.69-6.29,2.59,2.59,0,0,1,2.57-.27l-.36-.21L301,353a2.56,2.56,0,0,0-2.58.27,8.08,8.08,0,0,0-3.68,6.28,2.51,2.51,0,0,0,1.05,2.34l.65.36A2.5,2.5,0,0,1,295.41,360Z" style="opacity:0.1"></path><path d="M305.8,365.14h0a5.25,5.25,0,0,0,2.4-2.13,5.06,5.06,0,0,0-1.85-7l-4.68-2.64a2.59,2.59,0,0,0-2.57.27,6.17,6.17,0,0,0-1.26,1l7.8,4.42C308.2,360.53,307.26,364.27,305.8,365.14Z" style="fill:#e0e0e0"></path><path d="M305.1,363.52a1.94,1.94,0,0,0-.71-2.67l-7.88-4.48a7.45,7.45,0,0,0-1.1,3.58c0,.12,0,.24,0,.35l7,3.95A2,2,0,0,0,305.1,363.52Z" style="fill:#fff"></path><path d="M287.89,352.24c0,.09-.08.18-.11.27s0,.14-.07.2l-.06.23-.06.23a.5.5,0,0,0,0,.12,4.84,4.84,0,0,0-.09,1.07v0c0,.12,0,.25,0,.38h0c0-1.68,2.86-4.35,5.42-2.89.88.5,2.21,1.23,4.92,2.77a6.17,6.17,0,0,1,1.26-1,2.59,2.59,0,0,1,2.57-.27l-6.43-3.65a5.22,5.22,0,0,0-7.06,1.92,4.23,4.23,0,0,0-.22.42Z" style="opacity:0.1"></path><path d="M339.56,383.94h0a5.94,5.94,0,0,1-.92.44l-.36.13a11,11,0,0,1-8.36-.68l-8.69-4.94-.07-.05a6.08,6.08,0,0,1-2.51-2.37A6.21,6.21,0,0,1,321,368a6.52,6.52,0,0,1,.93-.43l.36-.13a11,11,0,0,1,8.36.68l8.69,4.94.07,0a6.13,6.13,0,0,1,.17,10.83Z" style="fill:#fafafa;mix-blend-mode:hard-light;opacity:0.7000000000000001"></path><path d="M321,373.36a10.79,10.79,0,0,1,9.65.11l8.69,4.95c2.74,1.55,2.86,4,.27,5.52a10.7,10.7,0,0,1-9.64-.11l-8.69-4.94C318.49,377.33,318.37,374.85,321,373.36Z" style="fill:#e0e0e0"></path><path d="M318.53,376.24A6.21,6.21,0,0,1,321,368a6.52,6.52,0,0,1,.93-.43l.36-.13a11.39,11.39,0,0,1,7.29.18c-4.09-.39-6.61-.49-9.19,1.67A6.28,6.28,0,0,0,318.53,376.24Z" style="fill:#fff"></path><path d="M334.08,372a2.59,2.59,0,0,0-2.57.27,8.13,8.13,0,0,0-3.69,6.29,2.52,2.52,0,0,0,1.05,2.33l4.68,2.65a5.21,5.21,0,0,0,7.05-1.92,5,5,0,0,0-1.84-7Z" style="fill:#f5f5f5"></path><path d="M327.65,368.34a5.22,5.22,0,0,0-7.06,1.92,5.06,5.06,0,0,0,1.84,7l6.44,3.64a2.52,2.52,0,0,1-1.05-2.33,8.13,8.13,0,0,1,3.69-6.29,2.59,2.59,0,0,1,2.57-.27Z" style="fill:#FF81AE"></path><path d="M321.64,373.13a2,2,0,0,1,2.7-.74l7.79,4.41a7.57,7.57,0,0,1-2.6,2.72l-.31.16-6.87-3.88A1.93,1.93,0,0,1,321.64,373.13Z" style="fill:#fff;opacity:0.4"></path><path d="M334.08,372a2.59,2.59,0,0,0-2.57.27,8.13,8.13,0,0,0-3.69,6.29,2.52,2.52,0,0,0,1.05,2.33l4.68,2.65a5.21,5.21,0,0,0,7.05-1.92,5,5,0,0,0-1.84-7Z" style="fill:#f5f5f5"></path><path d="M327.82,378.55a8.13,8.13,0,0,1,3.69-6.29,2.59,2.59,0,0,1,2.57-.27l-.36-.21-.28-.15a2.56,2.56,0,0,0-2.58.27,8.08,8.08,0,0,0-3.68,6.28,2.5,2.5,0,0,0,1.05,2.34l.64.36A2.52,2.52,0,0,1,327.82,378.55Z" style="opacity:0.1"></path><path d="M338.21,383.74h0a5.17,5.17,0,0,0,2.39-2.13,5,5,0,0,0-1.84-7L334.08,372a2.59,2.59,0,0,0-2.57.27,6.17,6.17,0,0,0-1.26,1l7.79,4.42C340.61,379.13,339.67,382.87,338.21,383.74Z" style="fill:#e0e0e0"></path><path d="M337.5,382.12a1.92,1.92,0,0,0-.7-2.67L328.92,375a7.45,7.45,0,0,0-1.1,3.58c0,.12,0,.24,0,.35l7,4A2,2,0,0,0,337.5,382.12Z" style="fill:#fff"></path><path d="M320.3,370.84c0,.09-.08.18-.11.27s-.05.14-.07.2l-.06.23-.06.23a.5.5,0,0,0,0,.12,4.84,4.84,0,0,0-.09,1.07v0c0,.13,0,.26,0,.38h0c0-1.68,2.86-4.35,5.42-2.89.88.5,2.21,1.23,4.92,2.77a6.17,6.17,0,0,1,1.26-1,2.59,2.59,0,0,1,2.57-.27l-6.43-3.65a5.22,5.22,0,0,0-7.06,1.92,4.23,4.23,0,0,0-.22.42Z" style="opacity:0.1"></path><path d="M283.72,378.87h0a7,7,0,0,1-.92.44l-.36.13a11,11,0,0,1-8.36-.68l-8.69-4.95-.07,0a6,6,0,0,1-2.51-2.38,6.2,6.2,0,0,1,2.33-8.45,7,7,0,0,1,.92-.43l.37-.13a11.06,11.06,0,0,1,8.36.67l8.69,4.95.06,0a6,6,0,0,1,2.51,2.38,6.19,6.19,0,0,1-2.33,8.45Z" style="fill:#fafafa;mix-blend-mode:hard-light;opacity:0.7000000000000001"></path><path d="M265.11,368.29a10.75,10.75,0,0,1,9.65.11l8.69,5c2.74,1.55,2.86,4,.27,5.52a10.73,10.73,0,0,1-9.64-.11l-8.69-4.95C262.65,372.26,262.53,369.78,265.11,368.29Z" style="fill:#e0e0e0"></path><path d="M262.69,371.16a6.2,6.2,0,0,1,2.45-8.22,7,7,0,0,1,.92-.43l.37-.13a11.39,11.39,0,0,1,7.29.18c-4.09-.39-6.61-.49-9.19,1.66A6.27,6.27,0,0,0,262.69,371.16Z" style="fill:#fff"></path><path d="M278.24,366.92a2.59,2.59,0,0,0-2.57.27,8.13,8.13,0,0,0-3.69,6.29,2.5,2.5,0,0,0,1,2.33l4.67,2.65a5.22,5.22,0,0,0,7.06-1.92,5.06,5.06,0,0,0-1.84-7Z" style="fill:#f5f5f5"></path><path d="M271.81,363.27a5.22,5.22,0,0,0-7.06,1.92,5.06,5.06,0,0,0,1.84,7l6.44,3.64a2.5,2.5,0,0,1-1-2.33,8.13,8.13,0,0,1,3.69-6.29,2.59,2.59,0,0,1,2.57-.27Z" style="fill:#FF81AE"></path><path d="M265.8,368.06a2,2,0,0,1,2.7-.74l7.79,4.41a7.57,7.57,0,0,1-2.6,2.72l-.32.16-6.87-3.88A1.93,1.93,0,0,1,265.8,368.06Z" style="fill:#fff;opacity:0.4"></path><path d="M278.24,366.92a2.59,2.59,0,0,0-2.57.27,8.13,8.13,0,0,0-3.69,6.29,2.5,2.5,0,0,0,1,2.33l4.67,2.65a5.22,5.22,0,0,0,7.06-1.92,5.06,5.06,0,0,0-1.84-7Z" style="fill:#f5f5f5"></path><path d="M272,373.48a8.13,8.13,0,0,1,3.69-6.29,2.59,2.59,0,0,1,2.57-.27l-.36-.21-.28-.15a2.56,2.56,0,0,0-2.58.27,8.08,8.08,0,0,0-3.68,6.28,2.51,2.51,0,0,0,1.05,2.34l.64.36A2.5,2.5,0,0,1,272,373.48Z" style="opacity:0.1"></path><path d="M282.37,378.67h0a5.17,5.17,0,0,0,2.39-2.13,5.06,5.06,0,0,0-1.84-7l-4.68-2.64a2.59,2.59,0,0,0-2.57.27,6.17,6.17,0,0,0-1.26,1l7.79,4.42C284.76,374.06,283.82,377.8,282.37,378.67Z" style="fill:#e0e0e0"></path><path d="M281.66,377.05a1.93,1.93,0,0,0-.7-2.67l-7.88-4.48a7.45,7.45,0,0,0-1.1,3.58c0,.12,0,.24,0,.35l7,3.95A2,2,0,0,0,281.66,377.05Z" style="fill:#fff"></path><path d="M264.46,365.77c0,.09-.08.18-.11.27s-.05.13-.07.2l-.06.22a2.1,2.1,0,0,0-.06.24l0,.12a6.41,6.41,0,0,0-.09,1.06,0,0,0,0,1,0,0c0,.13,0,.26,0,.38h0c0-1.67,2.86-4.34,5.42-2.89l4.92,2.78a6.17,6.17,0,0,1,1.26-1,2.59,2.59,0,0,1,2.57-.27l-6.43-3.65a5.22,5.22,0,0,0-7.06,1.92,4.36,4.36,0,0,0-.23.42Z" style="opacity:0.1"></path><path d="M316.13,397.47h0a7,7,0,0,1-.92.44l-.36.13a11,11,0,0,1-8.37-.68l-8.68-4.95-.07,0a6,6,0,0,1-2.51-2.38,6.2,6.2,0,0,1,2.33-8.45,7,7,0,0,1,.92-.43l.37-.13a11.06,11.06,0,0,1,8.36.67l8.69,5,.06,0a6,6,0,0,1,2.51,2.38,6.19,6.19,0,0,1-2.33,8.45Z" style="fill:#fafafa;mix-blend-mode:hard-light;opacity:0.7000000000000001"></path><path d="M297.52,386.89a10.75,10.75,0,0,1,9.65.11l8.69,4.95c2.74,1.55,2.86,4,.27,5.52a10.75,10.75,0,0,1-9.65-.11l-8.68-4.95C295.06,390.86,294.93,388.38,297.52,386.89Z" style="fill:#e0e0e0"></path><path d="M295.1,389.76a6.2,6.2,0,0,1,2.45-8.22,7,7,0,0,1,.92-.43l.37-.13a11.35,11.35,0,0,1,7.28.18c-4.08-.39-6.6-.49-9.18,1.66A6.27,6.27,0,0,0,295.1,389.76Z" style="fill:#fff"></path><path d="M310.65,385.52a2.6,2.6,0,0,0-2.58.27,8.15,8.15,0,0,0-3.68,6.29,2.5,2.5,0,0,0,1.05,2.33l4.67,2.65a5.22,5.22,0,0,0,7.06-1.92,5.06,5.06,0,0,0-1.84-7Z" style="fill:#f5f5f5"></path><path d="M304.21,381.87a5.21,5.21,0,0,0-7,1.92,5.06,5.06,0,0,0,1.84,7l6.44,3.64a2.5,2.5,0,0,1-1.05-2.33,8.15,8.15,0,0,1,3.68-6.29,2.6,2.6,0,0,1,2.58-.27Z" style="fill:#FF81AE"></path><path d="M298.21,386.66a2,2,0,0,1,2.7-.74l7.79,4.41a7.57,7.57,0,0,1-2.6,2.72l-.32.16-6.87-3.88A1.94,1.94,0,0,1,298.21,386.66Z" style="fill:#fff;opacity:0.4"></path><path d="M310.65,385.52a2.6,2.6,0,0,0-2.58.27,8.15,8.15,0,0,0-3.68,6.29,2.5,2.5,0,0,0,1.05,2.33l4.67,2.65a5.22,5.22,0,0,0,7.06-1.92,5.06,5.06,0,0,0-1.84-7Z" style="fill:#f5f5f5"></path><path d="M304.39,392.08a8.15,8.15,0,0,1,3.68-6.29,2.6,2.6,0,0,1,2.58-.27l-.36-.21-.28-.15a2.56,2.56,0,0,0-2.58.27,8.08,8.08,0,0,0-3.68,6.28A2.48,2.48,0,0,0,304.8,394l.64.37A2.5,2.5,0,0,1,304.39,392.08Z" style="opacity:0.1"></path><path d="M314.78,397.27h0a5.17,5.17,0,0,0,2.39-2.13,5.06,5.06,0,0,0-1.84-7l-4.68-2.64a2.6,2.6,0,0,0-2.58.27,6.76,6.76,0,0,0-1.26,1l7.8,4.42C317.17,392.66,316.23,396.4,314.78,397.27Z" style="fill:#e0e0e0"></path><path d="M314.07,395.65a1.93,1.93,0,0,0-.7-2.67l-7.89-4.48a7.55,7.55,0,0,0-1.09,3.58c0,.12,0,.23,0,.35l7,3.95A2,2,0,0,0,314.07,395.65Z" style="fill:#fff"></path><path d="M296.87,384.37c0,.09-.08.18-.11.27a1.59,1.59,0,0,0-.07.2l-.06.22a2.1,2.1,0,0,0-.06.24l0,.12a6.32,6.32,0,0,0-.09,1.06v0l0,.38h0c0-1.67,2.86-4.34,5.42-2.89l4.91,2.78a6.76,6.76,0,0,1,1.26-1,2.6,2.6,0,0,1,2.58-.27l-6.44-3.65a5.21,5.21,0,0,0-7,1.92,4.36,4.36,0,0,0-.23.42Z" style="opacity:0.1"></path><path d="M260.29,392.4h0a7,7,0,0,1-.92.44L259,393a11,11,0,0,1-8.36-.68l-8.69-5-.06,0a6,6,0,0,1-2.51-2.38,6.19,6.19,0,0,1,2.33-8.45,7,7,0,0,1,.92-.43l.37-.13a11.06,11.06,0,0,1,8.36.67l8.69,4.95.06,0a6,6,0,0,1,2.51,2.38,6.2,6.2,0,0,1-2.33,8.45Z" style="fill:#fafafa;mix-blend-mode:hard-light;opacity:0.7000000000000001"></path><path d="M241.68,381.82a10.72,10.72,0,0,1,9.65.11l8.69,4.94c2.73,1.56,2.86,4,.27,5.53a10.79,10.79,0,0,1-9.65-.11l-8.69-5C239.21,385.79,239.09,383.31,241.68,381.82Z" style="fill:#e0e0e0"></path><path d="M239.26,384.69a6.2,6.2,0,0,1,2.45-8.22,7,7,0,0,1,.92-.43l.37-.13a11.35,11.35,0,0,1,7.28.18c-4.08-.39-6.6-.49-9.18,1.66A6.27,6.27,0,0,0,239.26,384.69Z" style="fill:#fff"></path><path d="M254.81,380.45a2.6,2.6,0,0,0-2.58.27,8.09,8.09,0,0,0-3.68,6.29,2.48,2.48,0,0,0,1,2.33l4.67,2.65a5.22,5.22,0,0,0,7.06-1.92,5.05,5.05,0,0,0-1.84-7Z" style="fill:#f5f5f5"></path><path d="M248.37,376.8a5.22,5.22,0,0,0-7.06,1.92,5.06,5.06,0,0,0,1.85,7l6.44,3.64a2.48,2.48,0,0,1-1-2.33,8.09,8.09,0,0,1,3.68-6.29,2.6,2.6,0,0,1,2.58-.27Z" style="fill:#FF81AE"></path><path d="M242.37,381.59a2,2,0,0,1,2.7-.74l7.78,4.41a7.54,7.54,0,0,1-2.59,2.72l-.32.16-6.87-3.88A1.94,1.94,0,0,1,242.37,381.59Z" style="fill:#fff;opacity:0.4"></path><path d="M254.81,380.45a2.6,2.6,0,0,0-2.58.27,8.09,8.09,0,0,0-3.68,6.29,2.48,2.48,0,0,0,1,2.33l4.67,2.65a5.22,5.22,0,0,0,7.06-1.92,5.05,5.05,0,0,0-1.84-7Z" style="fill:#f5f5f5"></path><path d="M248.55,387a8.09,8.09,0,0,1,3.68-6.29,2.6,2.6,0,0,1,2.58-.27l-.37-.21-.27-.16a2.6,2.6,0,0,0-2.58.27,8.13,8.13,0,0,0-3.69,6.29A2.5,2.5,0,0,0,249,389l.64.37A2.48,2.48,0,0,1,248.55,387Z" style="opacity:0.1"></path><path d="M258.94,392.2h0a5.17,5.17,0,0,0,2.39-2.13,5.05,5.05,0,0,0-1.84-7l-4.68-2.64a2.6,2.6,0,0,0-2.58.27,6.37,6.37,0,0,0-1.26,1l7.8,4.42C261.33,387.59,260.39,391.33,258.94,392.2Z" style="fill:#e0e0e0"></path><path d="M258.23,390.58a2,2,0,0,0-.7-2.68l-7.89-4.47a7.44,7.44,0,0,0-1.09,3.58c0,.12,0,.23,0,.35l7,3.95A2,2,0,0,0,258.23,390.58Z" style="fill:#fff"></path><path d="M241,379.3c0,.09-.08.18-.11.27a1.59,1.59,0,0,0-.07.2,1.8,1.8,0,0,0-.06.22,2.17,2.17,0,0,0-.07.24.5.5,0,0,1,0,.12,5.42,5.42,0,0,0-.09,1.06v0c0,.13,0,.26,0,.38h0c0-1.67,2.85-4.34,5.42-2.89.87.5,2.2,1.23,4.91,2.78a6.37,6.37,0,0,1,1.26-1,2.6,2.6,0,0,1,2.58-.27l-6.44-3.65a5.22,5.22,0,0,0-7.06,1.92c-.08.14-.15.28-.22.42Z" style="opacity:0.1"></path><path d="M292.7,411h0a7,7,0,0,1-.92.44l-.37.13a11,11,0,0,1-8.36-.68l-8.69-4.95-.07,0a6.08,6.08,0,0,1-2.5-2.38,6.19,6.19,0,0,1,2.33-8.45,7,7,0,0,1,.92-.43l.37-.13a11.06,11.06,0,0,1,8.36.67l8.68,4.95.07,0a6.08,6.08,0,0,1,2.51,2.37A6.21,6.21,0,0,1,292.7,411Z" style="fill:#fafafa;mix-blend-mode:hard-light;opacity:0.7000000000000001"></path><path d="M274.09,400.42a10.72,10.72,0,0,1,9.65.11l8.69,4.94c2.73,1.56,2.86,4,.27,5.53a10.79,10.79,0,0,1-9.65-.11l-8.69-4.95C271.62,404.39,271.5,401.91,274.09,400.42Z" style="fill:#e0e0e0"></path><path d="M271.67,403.29a6.2,6.2,0,0,1,2.45-8.22,7,7,0,0,1,.92-.43l.37-.13a11.35,11.35,0,0,1,7.28.18c-4.08-.39-6.6-.49-9.18,1.66A6.27,6.27,0,0,0,271.67,403.29Z" style="fill:#fff"></path><path d="M287.22,399.05a2.6,2.6,0,0,0-2.58.27,8.09,8.09,0,0,0-3.68,6.29,2.48,2.48,0,0,0,1.05,2.33l4.67,2.65a5.22,5.22,0,0,0,7.06-1.92,5.05,5.05,0,0,0-1.84-7Z" style="fill:#f5f5f5"></path><path d="M280.78,395.4a5.22,5.22,0,0,0-7.06,1.92,5.06,5.06,0,0,0,1.85,7l6.44,3.64a2.48,2.48,0,0,1-1.05-2.33,8.09,8.09,0,0,1,3.68-6.29,2.6,2.6,0,0,1,2.58-.27Z" style="fill:#FF81AE"></path><path d="M274.78,400.19a2,2,0,0,1,2.7-.74l7.78,4.41a7.54,7.54,0,0,1-2.59,2.72l-.32.16-6.87-3.88A1.93,1.93,0,0,1,274.78,400.19Z" style="fill:#fff;opacity:0.4"></path><path d="M287.22,399.05a2.6,2.6,0,0,0-2.58.27,8.09,8.09,0,0,0-3.68,6.29,2.48,2.48,0,0,0,1.05,2.33l4.67,2.65a5.22,5.22,0,0,0,7.06-1.92,5.05,5.05,0,0,0-1.84-7Z" style="fill:#f5f5f5"></path><path d="M281,405.61a8.09,8.09,0,0,1,3.68-6.29,2.6,2.6,0,0,1,2.58-.27l-.37-.21-.27-.16A2.6,2.6,0,0,0,284,399a8.13,8.13,0,0,0-3.69,6.29,2.5,2.5,0,0,0,1.06,2.33l.64.37A2.48,2.48,0,0,1,281,405.61Z" style="opacity:0.1"></path><path d="M291.35,410.8h0a5.17,5.17,0,0,0,2.39-2.13,5.05,5.05,0,0,0-1.84-7l-4.68-2.64a2.6,2.6,0,0,0-2.58.27,6.37,6.37,0,0,0-1.26,1l7.8,4.42C293.74,406.19,292.8,409.92,291.35,410.8Z" style="fill:#e0e0e0"></path><path d="M290.64,409.18a2,2,0,0,0-.7-2.68L282.05,402a7.44,7.44,0,0,0-1.09,3.58c0,.12,0,.23,0,.35l7,4A2,2,0,0,0,290.64,409.18Z" style="fill:#fff"></path><path d="M273.44,397.9c0,.09-.08.18-.11.27a1.59,1.59,0,0,0-.07.2,1.87,1.87,0,0,0-.07.22l-.06.24a.5.5,0,0,1,0,.12A5.42,5.42,0,0,0,273,400v0c0,.13,0,.26,0,.38h0c0-1.67,2.85-4.34,5.41-2.89.88.5,2.21,1.23,4.92,2.78a6.37,6.37,0,0,1,1.26-1,2.6,2.6,0,0,1,2.58-.27l-6.44-3.65a5.22,5.22,0,0,0-7.06,1.92c-.08.14-.15.28-.22.42Z" style="opacity:0.1"></path><path d="M236.86,405.93h0a6.57,6.57,0,0,1-.93.44l-.36.13a11,11,0,0,1-8.36-.69l-8.69-4.94-.07-.05a6,6,0,0,1-2.5-2.37,6.19,6.19,0,0,1,2.33-8.45,5.88,5.88,0,0,1,.92-.43l.37-.13a11,11,0,0,1,8.35.67l8.69,4.94s0,0,.07.05a6.08,6.08,0,0,1,2.51,2.37,6.21,6.21,0,0,1-2.33,8.46Z" style="fill:#fafafa;mix-blend-mode:hard-light;opacity:0.7000000000000001"></path><path d="M218.25,395.35a10.7,10.7,0,0,1,9.64.11l8.69,4.94c2.74,1.56,2.86,4,.28,5.53a10.76,10.76,0,0,1-9.65-.12l-8.69-4.94C215.78,399.31,215.66,396.84,218.25,395.35Z" style="fill:#e0e0e0"></path><path d="M215.83,398.22a6.2,6.2,0,0,1,2.45-8.22,5.88,5.88,0,0,1,.92-.43l.37-.13a11.29,11.29,0,0,1,7.28.18c-4.08-.39-6.6-.49-9.18,1.66A6.27,6.27,0,0,0,215.83,398.22Z" style="fill:#fff"></path><path d="M231.38,394a2.6,2.6,0,0,0-2.58.27,8.08,8.08,0,0,0-3.68,6.28,2.5,2.5,0,0,0,1,2.34l4.67,2.65a5.24,5.24,0,0,0,7.06-1.92,5.08,5.08,0,0,0-1.84-7Z" style="fill:#f5f5f5"></path><path d="M224.94,390.33a5.22,5.22,0,0,0-7.06,1.92,5.07,5.07,0,0,0,1.84,7l6.45,3.64a2.5,2.5,0,0,1-1-2.34,8.08,8.08,0,0,1,3.68-6.28,2.6,2.6,0,0,1,2.58-.27Z" style="fill:#FF81AE"></path><path d="M218.93,395.12a2,2,0,0,1,2.71-.74l7.78,4.4a7.57,7.57,0,0,1-2.59,2.73l-.32.16-6.87-3.88A1.94,1.94,0,0,1,218.93,395.12Z" style="fill:#fff;opacity:0.4"></path><path d="M231.38,394a2.6,2.6,0,0,0-2.58.27,8.08,8.08,0,0,0-3.68,6.28,2.5,2.5,0,0,0,1,2.34l4.67,2.65a5.24,5.24,0,0,0,7.06-1.92,5.08,5.08,0,0,0-1.84-7Z" style="fill:#f5f5f5"></path><path d="M225.12,400.53a8.08,8.08,0,0,1,3.68-6.28,2.6,2.6,0,0,1,2.58-.27l-.37-.21-.28-.16a2.59,2.59,0,0,0-2.57.27,8.13,8.13,0,0,0-3.69,6.29,2.52,2.52,0,0,0,1.05,2.33l.65.37A2.5,2.5,0,0,1,225.12,400.53Z" style="opacity:0.1"></path><path d="M235.51,405.73h0a5.22,5.22,0,0,0,2.39-2.13,5.08,5.08,0,0,0-1.84-7L231.38,394a2.6,2.6,0,0,0-2.58.27,6.31,6.31,0,0,0-1.26,1l7.8,4.43C237.9,401.12,237,404.85,235.51,405.73Z" style="fill:#e0e0e0"></path><path d="M234.8,404.1a1.93,1.93,0,0,0-.71-2.67L226.21,397a7.43,7.43,0,0,0-1.09,3.57c0,.13,0,.24,0,.36l7,3.95A2,2,0,0,0,234.8,404.1Z" style="fill:#fff"></path><path d="M217.59,392.83l-.11.27-.06.2a1.87,1.87,0,0,0-.07.22l-.06.24s0,.08,0,.12a4.75,4.75,0,0,0-.09,1.06v0a2.34,2.34,0,0,0,0,.38h0c0-1.68,2.85-4.35,5.41-2.89.88.5,2.21,1.23,4.92,2.77a6.31,6.31,0,0,1,1.26-1,2.6,2.6,0,0,1,2.58-.27l-6.44-3.65a5.22,5.22,0,0,0-7.06,1.92c-.08.13-.15.28-.22.42Z" style="opacity:0.1"></path><path d="M269.27,424.53h0a6,6,0,0,1-.92.44l-.36.13a11,11,0,0,1-8.36-.69l-8.69-4.94s0,0-.07-.05a6.07,6.07,0,0,1-2.51-2.37,6.21,6.21,0,0,1,2.34-8.45,5.88,5.88,0,0,1,.92-.43L252,408a11,11,0,0,1,8.35.67l8.69,4.94.07.05a6.08,6.08,0,0,1,2.51,2.37,6.21,6.21,0,0,1-2.33,8.46Z" style="fill:#fafafa;mix-blend-mode:hard-light;opacity:0.7000000000000001"></path><path d="M250.66,414a10.7,10.7,0,0,1,9.64.11L269,419c2.74,1.56,2.86,4,.28,5.53a10.76,10.76,0,0,1-9.65-.12l-8.69-4.94C248.19,417.91,248.07,415.44,250.66,414Z" style="fill:#e0e0e0"></path><path d="M248.24,416.82a6.2,6.2,0,0,1,2.45-8.22,5.88,5.88,0,0,1,.92-.43L252,408a11.22,11.22,0,0,1,7.28.18c-4.08-.39-6.6-.49-9.18,1.66A6.27,6.27,0,0,0,248.24,416.82Z" style="fill:#fff"></path><path d="M263.79,412.58a2.6,2.6,0,0,0-2.58.27,8.08,8.08,0,0,0-3.68,6.28,2.5,2.5,0,0,0,1.05,2.34l4.67,2.65a5.24,5.24,0,0,0,7.06-1.92,5.08,5.08,0,0,0-1.84-7Z" style="fill:#f5f5f5"></path><path d="M257.35,408.93a5.22,5.22,0,0,0-7.06,1.92,5.07,5.07,0,0,0,1.84,7l6.45,3.64a2.5,2.5,0,0,1-1.05-2.34,8.08,8.08,0,0,1,3.68-6.28,2.6,2.6,0,0,1,2.58-.27Z" style="fill:#FF81AE"></path><path d="M251.34,413.71a2,2,0,0,1,2.71-.73l7.78,4.4a7.57,7.57,0,0,1-2.59,2.73l-.32.16-6.87-3.88A2,2,0,0,1,251.34,413.71Z" style="fill:#fff;opacity:0.4"></path><path d="M263.79,412.58a2.6,2.6,0,0,0-2.58.27,8.08,8.08,0,0,0-3.68,6.28,2.5,2.5,0,0,0,1.05,2.34l4.67,2.65a5.24,5.24,0,0,0,7.06-1.92,5.08,5.08,0,0,0-1.84-7Z" style="fill:#f5f5f5"></path><path d="M257.53,419.13a8.08,8.08,0,0,1,3.68-6.28,2.6,2.6,0,0,1,2.58-.27l-.37-.21-.28-.16a2.59,2.59,0,0,0-2.57.27,8.13,8.13,0,0,0-3.69,6.29,2.5,2.5,0,0,0,1.05,2.33l.65.37A2.5,2.5,0,0,1,257.53,419.13Z" style="opacity:0.1"></path><path d="M267.92,424.33h0a5.27,5.27,0,0,0,2.39-2.13,5.08,5.08,0,0,0-1.84-7l-4.68-2.63a2.6,2.6,0,0,0-2.58.27,6,6,0,0,0-1.26,1l7.8,4.43C270.31,419.72,269.37,423.45,267.92,424.33Z" style="fill:#e0e0e0"></path><path d="M267.21,422.7a1.94,1.94,0,0,0-.71-2.67l-7.88-4.47a7.33,7.33,0,0,0-1.09,3.57c0,.13,0,.24,0,.36l7,3.95A2,2,0,0,0,267.21,422.7Z" style="fill:#fff"></path><path d="M250,411.42c0,.1-.07.19-.11.28l-.06.2a1.87,1.87,0,0,0-.07.22l-.06.24s0,.08,0,.12a4.75,4.75,0,0,0-.09,1.06v0c0,.13,0,.25,0,.38h0c0-1.68,2.86-4.35,5.42-2.89.88.5,2.21,1.23,4.92,2.77a6,6,0,0,1,1.26-1,2.6,2.6,0,0,1,2.58-.27l-6.44-3.65a5.22,5.22,0,0,0-7.06,1.92c-.08.13-.15.28-.22.42A1,1,0,0,1,250,411.42Z" style="opacity:0.1"></path></g></g><g id="freepik--character-2--inject-89"><g id="freepik--Character--inject-89"><g id="freepik--Bottom--inject-89"><path d="M366.09,409.46c-.66-.13-.8,1.86-.66,2.73s2.54,4,7.27,5.58,11.52,1.37,14.4,1.57,7.1,2.07,9.87,3c6.43,2.09,10.37.12,12.25-1.31a3,3,0,0,0,1-2.29c.15-1.91,0-2.31-.2-2.32Z" style="fill:#37474f"></path><path d="M409.77,410.2a37,37,0,0,1,.62,4.05c.15,1.64.23,3.73-1,4.89-2.07,2-4.39,2.29-6.8,2.28a20.1,20.1,0,0,1-8.3-1.83c-2.42-1.09-4.35-2-7.06-2.17-3-.16-7.12-.09-10-.72a24,24,0,0,1-7.16-2.39,9.22,9.22,0,0,1-4-4.5,6.72,6.72,0,0,1,4.52-6.22,15.08,15.08,0,0,1,7.61-.69c2.8.34,4.87,1,7.36,1.07a12.41,12.41,0,0,0,5.07-.61,5,5,0,0,0,1.82-2c.5-.83.73-1.6,1.54-1.59,0,0,13.08,1.46,14.26,1.65,1.34.23,1,2.05.92,3s0,.87-.06,1.72a11.94,11.94,0,0,0,.4,2.84C409.6,409.39,409.69,409.79,409.77,410.2Z" style="fill:#455a64"></path><path d="M383.45,403.23a1.86,1.86,0,0,0-.58-.29c-1.12-.3-2.12.71-2.7,1.53a7,7,0,0,0-.79,1.63,4,4,0,0,0-.3,2.21c0,.19.15.42.35.39s.24-.23.28-.4a8.39,8.39,0,0,1,1.2-2.88,3.35,3.35,0,0,1,.82-1,3.23,3.23,0,0,1,1.21-.58c.18,0,.94.05.79-.31a.52.52,0,0,0-.13-.17Z" style="fill:#fafafa"></path><path d="M386.73,403.62a2.1,2.1,0,0,0-1.55.24,3.09,3.09,0,0,0-1.07,1.4c-.55,1.05-1.06,2.65-.53,3.8.17.37.5.23.65-.07a5,5,0,0,0,.28-1.16,10.4,10.4,0,0,1,1-2.45,4.14,4.14,0,0,1,.57-.86,1.72,1.72,0,0,1,.56-.41,1,1,0,0,1,.33-.1h.31c0-.16-.15-.28-.3-.33Z" style="fill:#fafafa"></path><path d="M390.15,403.06a2,2,0,0,0-1,.54,2.87,2.87,0,0,0-.57.95,10.39,10.39,0,0,0-.73,2.44,3.11,3.11,0,0,0,.22,1.76c.1.21.31.44.54.36s.26-.45.31-.67c.08-.39.09-.8.14-1.2a7.1,7.1,0,0,1,1.83-3.93.27.27,0,0,0,.09-.2c0-.1-.17-.13-.28-.12A2.24,2.24,0,0,0,390.15,403.06Z" style="fill:#fafafa"></path><path d="M379.92,403.15c-1.15-.15-3.76,1.15-5.34,4.56a20.33,20.33,0,0,0-1.43,8,11.5,11.5,0,0,1-6.08-3.76,4.83,4.83,0,0,1,.44-7.49c1.91-1.81,4.65-2.84,8.76-2.59,4.62.27,4.88,1.54,4.88,1.54Z" style="fill:#fafafa"></path><path d="M411,381.21s-2.51,18.23-2.89,22c-.16,1.6-3.69,3.35-8.57,2.87-3.43-.34-5.56-2.42-5.87-4.19s-1.3-23.26-1.3-23.26Z" style="fill:#c8856a"></path><path d="M461.91,382.14l-5.55-17.61-16.43,3.06s10,19,11.33,20.71C453.42,391.15,461.91,382.14,461.91,382.14Z" style="fill:#c8856a"></path><path d="M468.34,387.34a13.44,13.44,0,0,1-.24,4.93c-.22,1.63-.45,3.23-.58,4.87a17.27,17.27,0,0,1-.41,3,18.6,18.6,0,0,0-.14,3.58c0,1.26-.05,2.51-.07,3.76a6.67,6.67,0,0,0,0,1.61c.13.52-7.94,5.14-11.19,6.93l-.59.28a5.13,5.13,0,0,1-5.29-1.24,9,9,0,0,1,2.2-9.89s.41,0,.33-3.16c0-2.27,0-4.57-.25-6.83A14.52,14.52,0,0,0,451,391c-.49-1.2-1.44-2.48-1.38-3.83,0-1.08.75-1.79,1.26-2.66,1.19-2,3.8-3.72,5.91-4.66,1.19-.54,3.15-1.13,4.38-.38.66.4,1,1.18,1.45,1.79a8.91,8.91,0,0,0,2.11,1.75,8.28,8.28,0,0,1,3.46,3.93C468.27,387.08,468.3,387.21,468.34,387.34Z" style="fill:#455a64"></path><path d="M452,405.14a10.43,10.43,0,0,0-1,1.53h0a11.34,11.34,0,0,0-1.13,8.36c-5.7-.52-7.2-3.81-7.2-3.81s-.31-2.84,3-4.91a8.12,8.12,0,0,1,1.23-.65l.06,0A8.38,8.38,0,0,1,452,405.14Z" style="fill:#fafafa"></path><path d="M469.66,388.23c1.5.58,1.12,4.7.17,8.66s-1.46,5.34-1,8.64.76,4.77-.59,6-12,6.2-12,6.2a39.28,39.28,0,0,0,2.39-12.38c.28-7.3.77-12,4.16-15.32A6.41,6.41,0,0,1,469.66,388.23Z" style="fill:#263238"></path><path d="M442.63,411.22a19.9,19.9,0,0,0,8.92,3.89c4.77.54,5-1.29,5.51-6.94s.7-13.47,2.92-16.91,6-5,7.44-4.62c.31-.16,1.77.94,2.24,1.59a8.17,8.17,0,0,0-6.24,2.51c-3,2.91-3.52,9.06-3.66,14.65s-.38,12.06-4.83,12.74-9.18-1.23-12.13-3.69C441.1,413,442.63,411.22,442.63,411.22Z" style="fill:#37474f"></path><path d="M452.36,403.07a1.59,1.59,0,0,0-.66,1,3.21,3.21,0,0,0,1.62,2.93c.6.35,1.12.21.15-1A6.1,6.1,0,0,1,452.36,403.07Z" style="fill:#fafafa"></path><path d="M452.27,399.13a1.36,1.36,0,0,0-.4.86,4.88,4.88,0,0,0,2,3.08c1,.46.48-.69,0-1.23A20.41,20.41,0,0,1,452.27,399.13Z" style="fill:#fafafa"></path><path d="M452,394.8a.93.93,0,0,0-.49.7c0,.46,2.12,2.07,2.79,2s.83-.26,0-.83S452,394.8,452,394.8Z" style="fill:#fafafa"></path><path d="M446.74,381.3s-12.64-23-20.21-38.53c-2.61-5.34-3.78-7.63-4.58-11.73s-3.87-15.39-3.87-15.39l-4.18,23.9a81.48,81.48,0,0,1,1.89,13.24c.25,5-.56,10.86-2.35,21.8-2.57,15.77-3.71,19.65-3.71,19.65-1.12.85-4,1-6.93,1.16-6.73.3-10-2.85-10-2.85s-1.77-27.78-2.38-34.15c-2.08-21.77-2.22-31-1.72-56.38.42-21.65,2.76-47.7,2.76-47.7l48.14-11.54s8.85,15.48,8,30.63c-1,16.47-1.51,52.78-1.51,52.78,2.6,4.25,4.93,8.59,7.38,19,1.43,6.11,4.23,19.33,6.21,29A14.68,14.68,0,0,0,446.74,381.3Z" style="fill:#37474f"></path><path d="M418.08,315.65l6.12-33.85s6.58-.77,15.27-8.39c0,0-.59,5.94-12.13,11l-6.59,30.08L422,331Z" style="fill:#263238"></path></g><g id="freepik--Top--inject-89"><path d="M432.31,191.63c6.67-.79,11.49,1.56,16.21,10.59,4.46,8.55,10.76,20.91,13.19,27.17,1.19,3.05,3.16,5.74-2.28,11.64a92.41,92.41,0,0,1-17,14l-6.73-12.13,7.46-9.89-3.55-7.63Z" style="fill:#f0f0f0"></path><path d="M443.18,233a16.21,16.21,0,0,0,6.82,4.68c-2.53.8-7.05-1.51-8-3.08Z" style="fill:#e0e0e0"></path><path d="M440.47,198.64c-1.23-4.81-2.83-8-12-7.54l-1.27,0c-3.25.47-7.8.74-16.16,1.38-1.05.19-11,1.9-12.69,2.12,0,0-7.46,4.45-11.17,20.2-1,4.46-.53,9.16,5,13.43-.14,4.54.87,8.46.3,12.82a183,183,0,0,0-1.76,21.33s11.39,5.6,30.25,3.77c11.61-1.12,22.68-7.55,24.87-9.65,0,0-2-7.29-8.09-19.62C439.61,221.32,444.69,215.15,440.47,198.64Z" style="fill:#FF81AE"></path><path d="M390.09,230.69s.27,5,0,10-3.32,60-3.32,60,17.81,6.77,37.31,4.57l3-31.24,4.64,29.8a120.65,120.65,0,0,0,18.24-5c0-36.35-.25-43.13-4.14-53.66s-2.65-17.37-2.29-29.1-2.11-20.15-6.81-24.38c-5.4-1.48-20.44.06-30.09,1.37-3.79.52-8.29,1.63-8.29,1.63Z" style="fill:#e0e0e0"></path><g id="freepik--Arm--inject-89"><path d="M362.1,218.42a90.61,90.61,0,0,1-7.26-6.59c-.73-.8-.84-2.57-.87-3.64-.08-3.38-1.8-5.88-2.79-9-.25-.79-.65-2.19-1.53-2a1.86,1.86,0,0,0-1.08.54,2.65,2.65,0,0,0-.56,1.11,5.86,5.86,0,0,0,.13,2.88c.1.38.93,2.23.49,2.49-.16.1-.36,0-.51-.1a18.28,18.28,0,0,1-2.21-1.9c-.69-.62-1.42-1.17-2.06-1.83a32,32,0,0,1-4.15-5c-1.14-1.43-2-1.65-2.84-1.2s.2,2.49.2,2.49a9,9,0,0,0-2.25-2.38c-1.18-.56-2.52-.34-2.43.67a10.78,10.78,0,0,0,.31,1.2c-.59.21-1.71,1.56-.67,3.45,0,0-1.45.26-.21,3.38a31.78,31.78,0,0,0,10.8,14,30.8,30.8,0,0,1,5.67,5.33c4.54,5.22,9.07,10.68,13.82,15.91Z" style="fill:#c8856a"></path><path d="M337.11,196.69a20.49,20.49,0,0,0,5.36,7.73C340.56,201.91,338.77,199.37,337.11,196.69Zm-4.42-.62c1.66,4.33,4,8.67,7.69,11.59C337.1,204.32,334.89,200.17,332.69,196.07Zm4.87,12.57a42,42,0,0,1-5.54-9.12A18.87,18.87,0,0,0,337.56,208.64Z" style="fill:#af6152"></path><path d="M398.38,194.64c-6,1-10.25,6.22-12,8.58-5.49,7.6-15.27,20.16-15.27,20.16l-11.48-7.44s-1.94.31-4.45,3.85-2.16,8.85-2.16,8.85,8.59,9.48,10.3,11.18c7.82,7.79,12.1,5.24,14.53,3.27,7.79-6.33,18.59-20.15,20.68-22.32C402.6,216.59,404.11,201.45,398.38,194.64Z" style="fill:#f0f0f0"></path></g><path d="M399.17,165.62s-4.25,6.21-3.8,6.76A8.4,8.4,0,0,0,398,173.5Z" style="fill:#af6152"></path><path d="M406.53,149.93c-2.86,1.45-7.17,4.09-7.68,11.73-.1,1.47.17,3.61,0,5.4-.25,2-1.12,4.24-1.16,5.84-.23,8.39,2.2,11.63,3.65,13,1.17,1.1,7.2,1.5,10.34.54,3.93-1.2,12.46-5.34,16.45-11.78,4.7-7.57,5.67-17.67.25-21.63C420.7,147.46,409.37,148.48,406.53,149.93Z" style="fill:#c8856a"></path><path d="M401.62,186.12c1.42.78,5.42,1.1,8.41.66l-.09-2.24a21.6,21.6,0,0,1-4,1.3A14.35,14.35,0,0,1,401.62,186.12Z" style="fill:#af6152"></path><path d="M409.05,181.58l1.51,12.28a23.93,23.93,0,0,0,10.24.87c6.22-.68,7.13-3,7.13-3L426.75,180Z" style="fill:#c8856a"></path><path d="M404.5,147.36c-3.47,2.69-6.84,6.07-6.08,10.88a6.46,6.46,0,0,0,3.24,4.87,5.41,5.41,0,0,1,0-2.3,8.5,8.5,0,0,0,5,6.24,4.13,4.13,0,0,0,.06,2.44,1.61,1.61,0,0,0,1.48.94c.75-.09,1.09-1.05,1.5-1.59a4.2,4.2,0,0,1,3.15-2,3.57,3.57,0,0,1,3.47,1.87,7.25,7.25,0,0,1-.65,6c-1,1.57-2.22,2.48-3.45,2.55a3.25,3.25,0,0,1-2.6-1.09s-.62,6.9,5,9.11c0,0,6.17,1.63,11.67-.46.62-.24,1.59-2.08,2-2.62.86-1,1.74-2.05,2.63-3.07a31.88,31.88,0,0,0,3.57-5.39c2.39-4.12,3-9,2.75-13.81-.21-3.6-2.86-7.53-2.86-7.53C430.32,142.13,414,140.05,404.5,147.36Z" style="fill:#263238"></path><path d="M405.18,193.24a18.85,18.85,0,0,0,5.4,2.39,28.17,28.17,0,0,0,13.34.44c7.12-1.86,7.68-5,7.68-5s-1.49-2-2.19-2.82a3.58,3.58,0,0,0-2-1.24l.12,1s-1,1.38-5.25,2.18c-7.93,1.49-10.94-.32-12.22-.25S405.18,193.24,405.18,193.24Z" style="fill:#f0f0f0"></path><path d="M440,150.45a10.81,10.81,0,0,1,1.14.81,11.18,11.18,0,0,1,3.45,6.25c1.11,5.12.13,10.45.64,15.62.44,4.37,1.95,9,5.55,11.49a10.2,10.2,0,0,1-6.22.56,17,17,0,0,1,1.18,11.73,12.34,12.34,0,0,1-3.62,5.72,10.47,10.47,0,0,1-3,1.89c-1,.41-2,.06-3,.41a6.32,6.32,0,0,0,1.18-5.66,15.54,15.54,0,0,0-2.74-5.35,32.15,32.15,0,0,1-3.3-5.07c-1.49-3.19-1.58-6.84-1.47-10.36q.13-3.94.53-7.88c.47-4.8,1.08-9.63-.56-14.29-.66-1.89-1-3.14-.14-5C431.33,147.32,436.83,148.5,440,150.45Z" style="fill:#263238"></path></g></g></g><g id="freepik--character-1--inject-89"><g id="freepik--character--inject-89"><path d="M230.83,149.57l-146.3-6.76a3.06,3.06,0,0,0,0,.32c-.74,6.41-.33,12.51-2.66,18.71-2.9,7.74-8.74,14.07-11.84,21.73-4.34,10.68-2,24.64,7.63,31a21.47,21.47,0,0,1,5.69-14.06,42.26,42.26,0,0,0,51.6,30.94c4.29-1.07,8.08-4,12.67-3.59,4.77.39,8.91,3.51,13.4,4.89a45.5,45.5,0,0,0,15.5,1.69,37.09,37.09,0,0,0,23.13-8.9,7.11,7.11,0,0,1,2.35-1.63,6.63,6.63,0,0,1,2.77,0c5.41.65,11,.85,16.24-.58,9.6-2.62,17.23-10.7,20.49-20.11s2.47-19.92-1-29.27C237.5,165.72,232.52,157.89,230.83,149.57Z" style="fill:#37474f"></path><g id="freepik--Chest--inject-89"><path d="M285.06,273.54h0c-10.56-27-25.51-52.65-35.9-65.79-15.59-16.5-47.35-13.84-62.47-8.45l14.35,76.16c0,12,17.71,21.68,39.55,21.68C263,296.94,286.18,286.83,285.06,273.54Z" style="fill:#ffc4c3"></path><path d="M268.13,302.31h0c7.83-34.22-15.15-59.38-22.66-67.83-21.84-24.56-34.88-42.88-67.75-33.12-28.32,7.9-54.64,20.09-74.12,29.69A48.79,48.79,0,0,0,95,236.5c-4.71,3.62-7.79,10.76-8.64,15.87-2.73,16.32-4.2,30.63-5.09,42.75a34.09,34.09,0,0,0-.27,4h0c-1.83,15.94,2.07,26,21.74,37.31,39.34,22.71,97.88,22.85,135.67,3C258.8,328.8,268,311.37,268.13,302.31Z" style="fill:#FF81AE"></path><path d="M103.6,231.05c-29.26,14.38-37.42,20-42.82,50.21C57.2,301.29,49,341,48.35,345.73s4.11,12.07,11.06,16.09c13.89,8,43.35,7.48,57.82-1.52,6.69-4.16,9.52-9.5,10.4-15.46h0l5.91-37.2S135.18,248.25,103.6,231.05Z" style="fill:#ffc4c3"></path></g><g id="freepik--Head--inject-89"><path d="M135.08,205.29c-6.15-5.75-15.77-9.58-30.26-22.49C84.65,164.83,65.23,107.44,96,96c-.8-45.36,63.76-59.7,92-52.82,31.77,7.73,37.9,29.06,43.14,41.61,16.28,11.73.52,32.69.52,32.69Z" style="fill:#37474f"></path><path d="M69,64.36A33.27,33.27,0,0,0,58.85,75C54,83.4,54,94.94,60.39,102.21c.7.79,1.52,1.66,1.46,2.71a4.21,4.21,0,0,1-.56,1.59,21.41,21.41,0,0,0,1.28,21.13c10.25,15.32,30.82,10.25,40.05-3a67.73,67.73,0,0,0,11.94-35.39c.57-11.87-.49-23.47-12.7-28.44A36,36,0,0,0,69,64.36Z" style="fill:#37474f"></path><path d="M146.55,57.82c-48.93,18.54-42.22,73.06-42.22,73.06,5.45-2.33,11.31-2.35,18,2.37-4.58-24.28,6.36-59.94,44.77-69.94C203,54,228.26,74.45,231.18,84.79,226.37,58.22,185.27,43.15,146.55,57.82Z" style="fill:#FF81AE"></path><path d="M155.37,67.52c25.68-12.34,52.93-19.2,76.37,5.2s-1.45,47.41-1.45,47.41Z" style="fill:#37474f"></path><path d="M215.07,81.05c6.44,5.81,10.29,15.07,12.83,22.93,3.68,11.4,4.83,23.43,6,35.29,3.12,30.67-5.82,49.69-20.92,57.95-5.37,2.93-13.4,4.48-23.75,4.45l.85,16.55s19.07,22.13,18.87,50.51c-63.2-26.67-80.55-48.3-80.55-48.3L128,165.06c-.52,6.55-12.32,11-22.46,3-12.78-10.14-11.16-27-3-33.71,8.48-6.93,19.68-2.7,25,7.21l.69.17c4.39,1,8.29-1.18,10.67-4.91a22.78,22.78,0,0,0,3-9.6c1.29-10.61-.79-21.54,1.6-32,1.19-5.2,3.85-10.52,8.67-12.8,3.51-1.67,7.6-1.47,11.46-1.08,5.75.57,11.5,2.14,17.26,2.27a15.64,15.64,0,0,0,7.47-1.42c3.59-1.84,5.74-5,9.87-6.06a16.89,16.89,0,0,1,11,1A22.51,22.51,0,0,1,215.07,81.05Z" style="fill:#ffc4c3"></path><path d="M227.9,104c3.4,9.93,4.77,20.42,5.93,30.81,3,22.37,1.13,51.47-21.45,63.08-7.17,3.39-15.32,3.88-23.12,3.8,7.76-.2,15.81-.86,22.86-4.32,22-11.84,23.69-40.33,21-62.49-1-10.4-2.2-20.84-5.23-30.88Z" style="fill:#f28f8f"></path><path d="M189.26,201.67c-30.94-1.12-49.29-12.75-53.78-24.36,0,0,2.55,14.23,12.94,21.34,18.58,12.71,41.23,10.56,41.23,10.56Z" style="fill:#ffa8a7"></path><path d="M197.89,165.56l-16.94-4a8.28,8.28,0,0,0,6.1,10.41A9.18,9.18,0,0,0,197.89,165.56Z" style="fill:#b16668"></path><path d="M190.81,172a8.84,8.84,0,0,1-3.76,0,8.23,8.23,0,0,1-6.2-6.3A10,10,0,0,1,190.81,172Z" style="fill:#f28f8f"></path><path d="M163.33,129.7a6,6,0,1,0,5.26-6.67A6,6,0,0,0,163.33,129.7Z" style="fill:#263238"></path><path d="M208.25,126.42a6,6,0,1,0,5.27-6.67A6,6,0,0,0,208.25,126.42Z" style="fill:#263238"></path><path d="M186.7,117.28l8.3,36.85,20.19-9.07C201,124.9,195.52,119.34,186.7,117.28Z" style="fill:#ffa8a7"></path><path d="M220.82,112.31l-14.31-3.07a7,7,0,0,1,8.46-5.69A7.63,7.63,0,0,1,220.82,112.31Z" style="fill:#263238"></path><path d="M158.71,117.17l12.81-7.46a7.13,7.13,0,0,0-9.94-2.8A7.71,7.71,0,0,0,158.71,117.17Z" style="fill:#263238"></path></g></g><g id="freepik--Pimples--inject-89"><path d="M204.3,89.2a3.29,3.29,0,1,1-4-2.34A3.28,3.28,0,0,1,204.3,89.2Z" style="fill:#f28f8f"></path><path d="M209.43,92.42a1.13,1.13,0,1,1-1.38-.8A1.14,1.14,0,0,1,209.43,92.42Z" style="fill:#f28f8f"></path><path d="M153.82,97.14a1.13,1.13,0,1,1-1.38-.8A1.14,1.14,0,0,1,153.82,97.14Z" style="fill:#f28f8f"></path><path d="M202.86,89A1.5,1.5,0,1,1,201,87.93,1.5,1.5,0,0,1,202.86,89Z" style="fill:#fafafa"></path><path d="M156.26,147.14a3.54,3.54,0,1,1-3.53-3.54A3.53,3.53,0,0,1,156.26,147.14Z" style="fill:#f28f8f"></path><path d="M161.69,151.89a1.22,1.22,0,1,1-1.22-1.22A1.22,1.22,0,0,1,161.69,151.89Z" style="fill:#f28f8f"></path><path d="M165.88,180.45a1.22,1.22,0,1,1-1.22-1.22A1.22,1.22,0,0,1,165.88,180.45Z" style="fill:#f28f8f"></path><circle cx="207.49" cy="134.34" r="1.22" style="fill:#f28f8f"></circle><path d="M152,157a2,2,0,1,1-2-2A2,2,0,0,1,152,157Z" style="fill:#f28f8f"></path><circle cx="153.21" cy="146.53" r="1.61" style="fill:#fafafa"></circle><path d="M215.27,140.68a3.53,3.53,0,1,1-3.53-3.54A3.53,3.53,0,0,1,215.27,140.68Z" style="fill:#f28f8f"></path><path d="M213.83,140.07a1.61,1.61,0,1,1-1.61-1.61A1.61,1.61,0,0,1,213.83,140.07Z" style="fill:#fafafa"></path></g></g><g id="freepik--product-1--inject-89"><g id="freepik--Jar--inject-89"><path d="M184.78,358.54c0-8-5.25-15.89-15.75-22-21-12.13-55-12.13-76,0-10.5,6.06-15.75,14-15.75,22h0v47h0c0,7.94,5.25,15.88,15.75,21.95,21,12.12,55,12.12,76,0,10.5-6.06,15.75-14,15.75-21.95h0Z" style="fill:#FF81AE"></path><path d="M184.78,358.54c0-8-5.25-15.89-15.75-22-21-12.13-55-12.13-76,0-10.5,6.06-15.75,14-15.75,22h0v47h0c0,7.94,5.25,15.88,15.75,21.95,21,12.12,55,12.12,76,0,10.5-6.06,15.75-14,15.75-21.95h0Z" style="opacity:0.2"></path><path d="M164.11,334.1V430c1.7-.77,3.36-1.58,4.92-2.48a40.6,40.6,0,0,0,8.55-6.49V343.07a40.58,40.58,0,0,0-8.55-6.48A53.91,53.91,0,0,0,164.11,334.1Z" style="fill:#fff;opacity:0.15"></path><path d="M150,434.57a75.8,75.8,0,0,0,7.74-2.12V331.64a75.8,75.8,0,0,0-7.74-2.12Z" style="fill:#fff;opacity:0.15"></path><path d="M183.85,352.81a38.67,38.67,0,0,0-12.51-10.87c-20.73-12-53.42-12.78-75.8-2.48v-4.2c-.86.44-1.73.86-2.54,1.33-10.5,6.06-15.75,14-15.75,22v16.39h0v30.64c0,7.94,5.25,15.88,15.75,21.95,21,12.12,55,12.12,76,0a40.07,40.07,0,0,0,9.59-7.5c-10,9.34-34.9,14.47-53.39,10.83S95.54,415.41,95.54,407V391c22.38,10.3,55.07,9.49,75.8-2.48,6.26-3.62,10.7-7.87,13.44-12.4V358.54A18.62,18.62,0,0,0,183.85,352.81Z" style="fill:#FF81AE;opacity:0.2"></path><path d="M86.33,409.41V341.28c-6,5.21-9.08,11.23-9.08,17.26v47c0,7.94,5.25,15.88,15.75,21.95a67.58,67.58,0,0,0,20.42,7.35C93.21,429.39,86.33,415.58,86.33,409.41Z" style="opacity:0.15"></path><path d="M96.09,425.06c19.29,9.69,50.56,9.69,69.85,0s19.29-25.41,0-35.1-50.56-9.7-69.85,0S76.8,415.36,96.09,425.06Z" style="fill:#FF81AE;opacity:0.30000000000000004"></path><path d="M184.78,350.75c0-7.95-5.25-15.89-15.75-21.95-21-12.12-55-12.12-76,0-10.5,6.06-15.75,14-15.75,21.95h0V364h0c0,7.94,5.25,15.89,15.75,21.95,21,12.12,55,12.12,76,0,10.5-6.06,15.75-14,15.75-21.95h0V350.75Z" style="fill:#e0e0e0"></path><path d="M143.88,394.1c-26.6.15-40.65-8.49-44.91-15.54-3.24-5.36-3.8-4.68-3.8-14.49,0,0-3-22.34-2.42-22.41.37-.05-6.38-1.51-11.55-2.61a20.24,20.24,0,0,0-4,11.7h0V364h0c0,7.94,5.25,15.89,15.75,21.95C106.8,393.91,126.22,396.61,143.88,394.1Z" style="opacity:0.1"></path><g style="opacity:0.1"><path d="M102.79,390.39c-.87-.31-1.73-.64-2.58-1v-20.2h2.58Z"></path><path d="M113.85,393.39c-.86-.17-1.73-.33-2.58-.53V372.39h2.58Z"></path><path d="M125.66,394.88c-.86-.05-1.72-.14-2.58-.21V374h2.58Z"></path><path d="M82.23,377V357.42h2.58v22.39A31.92,31.92,0,0,1,82.23,377Z"></path><path d="M78.54,370.65A18.75,18.75,0,0,1,77.25,364h0V350.75h0a18.44,18.44,0,0,1,.6-4.41h.69Z"></path><path d="M90.19,384.15V364.28h2.58V385.8C91.86,385.27,91,384.71,90.19,384.15Z"></path><path d="M177.55,379.49V358.55h2.58v18A28.8,28.8,0,0,1,177.55,379.49Z"></path><path d="M149.67,393.08c-.86.19-1.71.37-2.58.53v-21h2.58Z"></path><path d="M160.93,389.78c-.84.33-1.71.62-2.58.91v-21h2.58Z"></path><path d="M183.49,348.54h1.11a18.29,18.29,0,0,1,.18,2.21V364a18.75,18.75,0,0,1-1.29,6.65Z"></path><path d="M168.58,386.18V365.44h2.58v19.15c-.7.45-1.37.92-2.13,1.36Z"></path><path d="M137.76,394.76c-.86.07-1.72.13-2.58.16V374h2.58Z"></path></g><path d="M93,372.7c21,12.12,55,12.12,76,0s21-31.78,0-43.9-55-12.12-76,0S72,360.57,93,372.7Z" style="fill:#ebebeb"></path><path d="M105.29,402.91c20.4,6.42,46.48,4.67,63.74-5.3,10.5-6.06,15.75-14,15.75-21.95l0,20.07c0,7.95-5.25,15.89-15.75,21.95-17.27,10-43.32,11.69-63.72,5.27Z" style="fill:#fafafa"></path><path d="M171.92,370.85c18-12.19,17.08-30.52-2.89-42.05-10.23-5.91-23.57-8.92-37-9.07a60.1,60.1,0,0,0-19.62,6.69c-18.15,10.38-18.15,31.09,0,41.47C128.63,377.15,153.79,378.12,171.92,370.85Z" style="fill:#f5f5f5"></path><path d="M81.36,362.66s17.49,17.61,51.27,16.69,47.29-19.37,49.08-25.09.65-13.16-4.56-19.46c4.53,4.25,7.58,9.83,7.63,15.95V364c0,2,1,8.94-9.87,17.92,0,0,6.4-7.27,6.4-14.26v-5.88s-11.95,20-48.68,20S83.21,365.66,81.36,362.66Z" style="fill:#fff"></path><polygon points="124.75 414.05 124.75 408.86 119.68 408.45 119.68 413.65 114.6 413.24 114.6 418.44 119.68 418.84 119.68 424.03 124.75 424.44 124.75 419.25 129.83 419.65 129.83 414.46 124.75 414.05" style="fill:#FF81AE"></polygon><path d="M169,406.48c-8.41,4.54-19,7.4-30.51,8.27a.59.59,0,0,0-.55.64.6.6,0,0,0,.6.56h0c11.71-.88,22.43-3.79,31-8.41,7.16-3.87,12.31-8.66,15.19-14v-2.84C182.35,396.73,177,402.18,169,406.48Z" style="fill:#e0e0e0"></path><path d="M169,412.16c-8.41,4.55-19,7.41-30.51,8.27a.6.6,0,0,0,.05,1.2h0c11.71-.87,22.43-3.78,31-8.41,6.71-3.62,11.65-8.06,14.62-13a19.17,19.17,0,0,0,.54-3.74C182.29,402.47,176.91,407.89,169,412.16Z" style="fill:#e0e0e0"></path><path d="M169,402.7c-8.42,4.55-19,7.41-30.51,8.27a.61.61,0,0,0,.05,1.21h0c11.71-.87,22.43-3.78,31-8.4,7.17-3.88,12.32-8.68,15.2-14V387C182.35,393,177,398.41,169,402.7Z" style="fill:#e0e0e0"></path></g></g><g id="freepik--speech-bubble--inject-89"><g id="freepik--speech-bubble--inject-89"><path d="M451.64,87.91A32.05,32.05,0,0,1,443,109.84l-2.65,2.53a32.05,32.05,0,0,1-45.29-45.08l2.53-2.66a32,32,0,0,1,54,23.28Z" style="fill:#fff"></path><path d="M416.44,94.41a17.27,17.27,0,0,1-.45,2.73l-.13.57c-.12.59-.24,1.19-.36,1.83l0,.2-.18,0a2.45,2.45,0,0,0-.46,0c-2,0-3.26,2.12-4.23,4.19a8.62,8.62,0,0,1-2.26,3.24,6,6,0,0,1-3.05,1.36,1.45,1.45,0,0,1-1-.38c-.84-.75-.46-2.17,0-2.89a5.84,5.84,0,0,1,2.25-1.89l.64-.39.1-.07c.71-.44,1.87-1.18,1.52-2-.25-.66-1.12-.91-1.84-.94a3.7,3.7,0,0,0-.66.07c-.23,0-.45.06-.68.06h-.1a1.86,1.86,0,0,1-.89-.15.74.74,0,0,1-.4-.57,1.36,1.36,0,0,1,.48-1,6.75,6.75,0,0,1,3.8-1.43l.28,0,.64-.09c1.93-.27,5.16-.72,4.95-2.85-.18-1.81-2.15-2.64-3.9-2.64H410a10.88,10.88,0,0,0-3.37,1,10,10,0,0,1-3.85,1h-.28a15.47,15.47,0,0,1-3.38-.68,14.33,14.33,0,0,0-3.61-.64,6.23,6.23,0,0,0-1.3.13,12.85,12.85,0,0,0-2.51,1,12.52,12.52,0,0,1-3.66,1.18h0a33.22,33.22,0,0,1-.59-6.11c0-1.06,0-2.11.14-3.15.42-.14,1.05-.4,1.46-.59a11.88,11.88,0,0,1,1.75-.66,3.62,3.62,0,0,1,1.14-.17,8.39,8.39,0,0,1,3.72,1.24,14.93,14.93,0,0,0,1.92.87,5.17,5.17,0,0,0,1.91.37,4.35,4.35,0,0,0,1-.11A8.81,8.81,0,0,0,403,84.68l.43-.25a5.46,5.46,0,0,1,2.89-.91,3.28,3.28,0,0,1,.62,0l1,.16a9.65,9.65,0,0,0,1.85.23,3.91,3.91,0,0,0,.7,0,4,4,0,0,0,2.41-1.69l.28-.37a9.09,9.09,0,0,1,.73-.91c.16-.19.77-.85,1.05-.65a.28.28,0,0,1,.11.22.93.93,0,0,1,0,.24,2.85,2.85,0,0,1-.25.63c-.9,1.95-1.93,4.17-1.52,6.51a7.25,7.25,0,0,0,1.8,3.48A4.54,4.54,0,0,1,416.44,94.41Z" style="fill:#ffc4c3"></path><path d="M451.64,87.91a31.67,31.67,0,0,1-.6,6.27A12.44,12.44,0,0,1,447.39,93a13.63,13.63,0,0,0-2.5-1,6.1,6.1,0,0,0-1.3-.13,13.74,13.74,0,0,0-3.63.66,16.39,16.39,0,0,1-3.36.66h-.29a9.92,9.92,0,0,1-3.84-1,10.88,10.88,0,0,0-3.37-1h-.36c-1.75,0-3.73.83-3.9,2.64-.22,2.13,3,2.58,5,2.85l.64.09.27,0c1.27.2,2.86.46,3.81,1.43a1.38,1.38,0,0,1,.47,1,.72.72,0,0,1-.4.57,1.8,1.8,0,0,1-.88.15h-.1c-.23,0-.45,0-.68-.06a4,4,0,0,0-.71-.07,2,2,0,0,0-1.8.94c-.34.86.82,1.6,1.53,2l.1.07.64.39a5.81,5.81,0,0,1,2.24,1.89c.43.72.81,2.14,0,2.89a1.57,1.57,0,0,1-1.06.38,6,6,0,0,1-3.05-1.36,8.4,8.4,0,0,1-2.26-3.24c-1-2.07-2.23-4.19-4.24-4.19a2.53,2.53,0,0,0-.46,0l-.18,0,0-.2c-.11-.64-.24-1.24-.35-1.83l-.13-.6a16.17,16.17,0,0,1-.46-2.7,4.66,4.66,0,0,1,1.39-3,7.08,7.08,0,0,0,1.8-3.48c.42-2.34-.61-4.56-1.52-6.51a2.12,2.12,0,0,1-.3-.79.25.25,0,0,1,.05-.21.29.29,0,0,1,.3,0,2.08,2.08,0,0,1,.85.58c.27.3.5.62.74.92l.26.37a4.1,4.1,0,0,0,2.41,1.69,4,4,0,0,0,.71,0,9.55,9.55,0,0,0,1.84-.23l1-.16a3.44,3.44,0,0,1,.63,0,5.48,5.48,0,0,1,2.89.91l.44.25a8.64,8.64,0,0,0,2.5,1.17,4.33,4.33,0,0,0,.95.11,5.22,5.22,0,0,0,1.92-.37,14.93,14.93,0,0,0,1.92-.87,8.34,8.34,0,0,1,3.72-1.24,3.82,3.82,0,0,1,1.15.17,12.11,12.11,0,0,1,1.77.69c.39.16,1,.43,1.41.57A29.56,29.56,0,0,1,451.64,87.91Z" style="fill:#ffc4c3"></path><path d="M447.39,93A12.44,12.44,0,0,0,451,94.18a1.16,1.16,0,0,1,0,.18h0a32.13,32.13,0,0,1-8,15.48l-2.65,2.53a32.06,32.06,0,0,1-52.25-18h0l0-.2A12.52,12.52,0,0,0,391.74,93a12.85,12.85,0,0,1,2.51-1,6.23,6.23,0,0,1,1.3-.13,14.33,14.33,0,0,1,3.61.64,15.47,15.47,0,0,0,3.38.68h.28a10,10,0,0,0,3.85-1,10.88,10.88,0,0,1,3.37-1h.36c1.75,0,3.72.83,3.9,2.64.21,2.13-3,2.58-4.95,2.85l-.64.09-.28,0a6.75,6.75,0,0,0-3.8,1.43,1.36,1.36,0,0,0-.48,1,.74.74,0,0,0,.4.57,1.86,1.86,0,0,0,.89.15h.1c.23,0,.45,0,.68-.06a3.7,3.7,0,0,1,.66-.07c.72,0,1.59.28,1.84.94.35.86-.81,1.6-1.52,2l-.1.07-.64.39a5.84,5.84,0,0,0-2.25,1.89c-.43.72-.81,2.14,0,2.89a1.45,1.45,0,0,0,1,.38,6,6,0,0,0,3.05-1.36,8.62,8.62,0,0,0,2.26-3.24c1-2.07,2.23-4.19,4.23-4.19a2.45,2.45,0,0,1,.46,0l.18,0,0-.2c.12-.64.24-1.24.36-1.83l.13-.57a17.27,17.27,0,0,0,.45-2.73,4.54,4.54,0,0,0-1.39-3,7.25,7.25,0,0,1-1.8-3.48c-.41-2.34.62-4.56,1.52-6.51a2.85,2.85,0,0,0,.25-.63.93.93,0,0,0,0-.24.28.28,0,0,0-.11-.22c-.28-.2-.89.46-1.05.65a9.09,9.09,0,0,0-.73.91l-.28.37a4,4,0,0,1-2.41,1.69,3.91,3.91,0,0,1-.7,0,9.65,9.65,0,0,1-1.85-.23l-1-.16a3.28,3.28,0,0,0-.62,0,5.46,5.46,0,0,0-2.89.91l-.43.25a8.81,8.81,0,0,1-2.51,1.17,4.35,4.35,0,0,1-1,.11,5.17,5.17,0,0,1-1.91-.37,14.93,14.93,0,0,1-1.92-.87A8.39,8.39,0,0,0,392,83.48a3.62,3.62,0,0,0-1.14.17,11.88,11.88,0,0,0-1.75.66c-.41.19-1,.45-1.46.59,0-.1,0-.2,0-.3a30.75,30.75,0,0,1,1-5.11l.16-.59h0a32,32,0,0,1,6.28-11.62l2.53-2.65a32,32,0,0,1,52.73,14.28c0,.08.05.16.07.23v0l0,.1a1.05,1.05,0,0,0,.06.24,31.8,31.8,0,0,1,1,5.11l0,.3c-.41-.14-1-.41-1.41-.57a12.11,12.11,0,0,0-1.77-.69,3.82,3.82,0,0,0-1.15-.17,8.34,8.34,0,0,0-3.72,1.24,14.93,14.93,0,0,1-1.92.87,5.22,5.22,0,0,1-1.92.37,4.33,4.33,0,0,1-.95-.11,8.64,8.64,0,0,1-2.5-1.17l-.44-.25a5.48,5.48,0,0,0-2.89-.91,3.44,3.44,0,0,0-.63,0l-1,.16a9.55,9.55,0,0,1-1.84.23,4,4,0,0,1-.71,0,4.1,4.1,0,0,1-2.41-1.69l-.26-.37c-.24-.3-.47-.62-.74-.92a2.08,2.08,0,0,0-.85-.58.29.29,0,0,0-.3,0,.25.25,0,0,0-.05.21,2.12,2.12,0,0,0,.3.79c.91,1.95,1.94,4.17,1.52,6.51a7.08,7.08,0,0,1-1.8,3.48,4.66,4.66,0,0,0-1.39,3,16.17,16.17,0,0,0,.46,2.7l.13.6c.11.59.24,1.19.35,1.83l0,.2.18,0a2.53,2.53,0,0,1,.46,0c2,0,3.27,2.12,4.24,4.19a8.4,8.4,0,0,0,2.26,3.24,6,6,0,0,0,3.05,1.36,1.57,1.57,0,0,0,1.06-.38c.81-.75.43-2.17,0-2.89a5.81,5.81,0,0,0-2.24-1.89l-.64-.39-.1-.07c-.71-.44-1.87-1.18-1.53-2a2,2,0,0,1,1.8-.94,4,4,0,0,1,.71.07c.23,0,.45.06.68.06h.1a1.8,1.8,0,0,0,.88-.15.72.72,0,0,0,.4-.57,1.38,1.38,0,0,0-.47-1c-.95-1-2.54-1.23-3.81-1.43l-.27,0-.64-.09c-1.93-.27-5.17-.72-5-2.85.17-1.81,2.15-2.64,3.9-2.64h.36a10.88,10.88,0,0,1,3.37,1,9.92,9.92,0,0,0,3.84,1h.29a16.39,16.39,0,0,0,3.36-.66,13.74,13.74,0,0,1,3.63-.66,6.1,6.1,0,0,1,1.3.13A13.63,13.63,0,0,1,447.39,93Z" style="fill:#fff"></path><path d="M451,94.36a32.16,32.16,0,0,1-8,15.47l-2.65,2.54a32.06,32.06,0,0,1-52.25-18,12.59,12.59,0,0,0,4-1.2l.15-.06a8.87,8.87,0,0,1,3.53-.89q.31,0,.63,0a18.25,18.25,0,0,1,2.79.64q.67.21,1.35.39a10.42,10.42,0,0,0,2.5.34,6.53,6.53,0,0,0,1.1-.09,13.13,13.13,0,0,0,2.82-.93l1-.43a7.12,7.12,0,0,1,2.57-.56,4.62,4.62,0,0,1,1,.1,3.14,3.14,0,0,1,2,1.39,1.41,1.41,0,0,1,.05,1.28c-.49,1.2-2.38,1.51-3.51,1.7l-.22,0-1,.17a16.46,16.46,0,0,0-2.93.63c-1.38.46-2.11,1.09-2.18,1.88a1.37,1.37,0,0,0,1.26,1.41,1.51,1.51,0,0,0,.3,0,6.19,6.19,0,0,0,.81-.07,6.84,6.84,0,0,1,.9-.08,1.71,1.71,0,0,1,1.21.39.62.62,0,0,1,.23.55c-.07.7-1.27,1.48-2.55,2.22l-.3.17a4.45,4.45,0,0,0-2,2.1,2.71,2.71,0,0,0,.07,2.31,1.8,1.8,0,0,0,1.63.93,6.6,6.6,0,0,0,4.18-2.35,12,12,0,0,0,1.43-2.51c.19-.41.38-.82.59-1.21.43-.82,1.66-2.71,3.61-2.71h.24l0,.23c-.38,2.24-.7,5.42.77,7.23a4.84,4.84,0,0,0,6.82,0c1.47-1.8,1.14-5,.77-7.22l0-.23H424c1.94,0,3.15,1.89,3.59,2.71.2.39.4.8.59,1.21a11.19,11.19,0,0,0,1.44,2.51,6.56,6.56,0,0,0,4.17,2.35,1.81,1.81,0,0,0,1.63-.93,2.68,2.68,0,0,0,.06-2.31,4.4,4.4,0,0,0-2-2.1l-.29-.18c-1.28-.73-2.49-1.51-2.56-2.21a.61.61,0,0,1,.24-.55,1.7,1.7,0,0,1,1.2-.39,7.3,7.3,0,0,1,.92.08,5.65,5.65,0,0,0,.8.07,1.37,1.37,0,0,0,.29,0,1.38,1.38,0,0,0,1.27-1.41c-.07-.79-.8-1.42-2.18-1.88a16.65,16.65,0,0,0-2.93-.63l-1-.17-.2,0c-1.14-.19-3-.5-3.53-1.7a1.47,1.47,0,0,1,0-1.28,3.19,3.19,0,0,1,2-1.39,4.46,4.46,0,0,1,1-.1,7.17,7.17,0,0,1,2.58.56c.34.14.69.28,1,.43a13.51,13.51,0,0,0,2.82.93,6.65,6.65,0,0,0,1.11.09,10.34,10.34,0,0,0,2.49-.34c.46-.12.93-.26,1.38-.39a17,17,0,0,1,2.76-.64l.63,0a8.92,8.92,0,0,1,3.54.89l.14.06A13,13,0,0,0,451,94.36Z" style="fill:#FF81AE"></path><path d="M451,94.36a32.16,32.16,0,0,1-8,15.47l-2.65,2.54a32.06,32.06,0,0,1-52.25-18,12.59,12.59,0,0,0,4-1.2l.15-.06a8.87,8.87,0,0,1,3.53-.89q.31,0,.63,0a18.25,18.25,0,0,1,2.79.64q.67.21,1.35.39a10.42,10.42,0,0,0,2.5.34,6.53,6.53,0,0,0,1.1-.09,13.13,13.13,0,0,0,2.82-.93l1-.43a7.12,7.12,0,0,1,2.57-.56,4.62,4.62,0,0,1,1,.1,3.14,3.14,0,0,1,2,1.39,1.41,1.41,0,0,1,.05,1.28c-.49,1.2-2.38,1.51-3.51,1.7l-.22,0-1,.17a16.46,16.46,0,0,0-2.93.63c-1.38.46-2.11,1.09-2.18,1.88a1.37,1.37,0,0,0,1.26,1.41,1.51,1.51,0,0,0,.3,0,6.19,6.19,0,0,0,.81-.07,6.84,6.84,0,0,1,.9-.08,1.71,1.71,0,0,1,1.21.39.62.62,0,0,1,.23.55c-.07.7-1.27,1.48-2.55,2.22l-.3.17a4.45,4.45,0,0,0-2,2.1,2.71,2.71,0,0,0,.07,2.31,1.8,1.8,0,0,0,1.63.93,6.6,6.6,0,0,0,4.18-2.35,12,12,0,0,0,1.43-2.51c.19-.41.38-.82.59-1.21.43-.82,1.66-2.71,3.61-2.71h.24l0,.23c-.38,2.24-.7,5.42.77,7.23a4.84,4.84,0,0,0,6.82,0c1.47-1.8,1.14-5,.77-7.22l0-.23H424c1.94,0,3.15,1.89,3.59,2.71.2.39.4.8.59,1.21a11.19,11.19,0,0,0,1.44,2.51,6.56,6.56,0,0,0,4.17,2.35,1.81,1.81,0,0,0,1.63-.93,2.68,2.68,0,0,0,.06-2.31,4.4,4.4,0,0,0-2-2.1l-.29-.18c-1.28-.73-2.49-1.51-2.56-2.21a.61.61,0,0,1,.24-.55,1.7,1.7,0,0,1,1.2-.39,7.3,7.3,0,0,1,.92.08,5.65,5.65,0,0,0,.8.07,1.37,1.37,0,0,0,.29,0,1.38,1.38,0,0,0,1.27-1.41c-.07-.79-.8-1.42-2.18-1.88a16.65,16.65,0,0,0-2.93-.63l-1-.17-.2,0c-1.14-.19-3-.5-3.53-1.7a1.47,1.47,0,0,1,0-1.28,3.19,3.19,0,0,1,2-1.39,4.46,4.46,0,0,1,1-.1,7.17,7.17,0,0,1,2.58.56c.34.14.69.28,1,.43a13.51,13.51,0,0,0,2.82.93,6.65,6.65,0,0,0,1.11.09,10.34,10.34,0,0,0,2.49-.34c.46-.12.93-.26,1.38-.39a17,17,0,0,1,2.76-.64l.63,0a8.92,8.92,0,0,1,3.54.89l.14.06A13,13,0,0,0,451,94.36Z" style="fill:#fff;opacity:0.8"></path><path d="M424.88,89.58a.88.88,0,0,1,.26.12c.22.15.38.39.59.56.73.55,1.74,0,2.62-.21,2.66-.73,5.3,1.35,8.06,1.38,2.16,0,4.16-1.21,6.32-1.3,3-.12,5.72,2,8.65,2-.09.71-.2,1.4-.34,2.08a5,5,0,0,1-2-.34,18,18,0,0,1-2-.83,9.84,9.84,0,0,0-3.39-1,15.69,15.69,0,0,0-4.41.87,12,12,0,0,1-7-.46A10.88,10.88,0,0,0,429,91.42a4.09,4.09,0,0,0-3.38,1.27,2.36,2.36,0,0,0-.44,1.53,2.16,2.16,0,0,0,1.19,1.36,10.51,10.51,0,0,0,3,.85c1.83.33,4,.19,5.27,1.52a1.46,1.46,0,0,1,.46,1.42,1.3,1.3,0,0,1-1.35.73c-.46,0-.91-.11-1.37-.12a2.6,2.6,0,0,0-1.26.23,2.12,2.12,0,0,0-.38.29.8.8,0,0,0-.19.64c.16.69.85,1.1,1.4,1.46a15.09,15.09,0,0,1,2.59,1.81,3.36,3.36,0,0,1,1,3,1.47,1.47,0,0,1-1.41,1.19,5.33,5.33,0,0,1-2.37-.7,7.07,7.07,0,0,1-2.89-2.92,22.59,22.59,0,0,0-1.64-3.35,4.55,4.55,0,0,0-3.58-1.77,28.07,28.07,0,0,1-.92-4.16,6.18,6.18,0,0,1,.18-3.2A17.35,17.35,0,0,1,424.88,89.58Z" style="fill:#f28f8f"></path><path d="M414.26,89.58a.88.88,0,0,0-.26.12c-.23.15-.38.39-.6.56-.72.55-1.73,0-2.61-.21-2.66-.73-5.31,1.35-8.07,1.38-2.15,0-4.16-1.21-6.31-1.3-3-.12-5.73,2-8.65,2,.09.71.2,1.4.33,2.08a5.1,5.1,0,0,0,2-.34,18,18,0,0,0,2-.83,9.84,9.84,0,0,1,3.39-1,15.69,15.69,0,0,1,4.41.87,12,12,0,0,0,7-.46,10.83,10.83,0,0,1,3.35-1.07,4.08,4.08,0,0,1,3.38,1.27,2.32,2.32,0,0,1,.45,1.53,2.15,2.15,0,0,1-1.2,1.36,10.44,10.44,0,0,1-3,.85c-1.84.33-4,.19-5.27,1.52a1.46,1.46,0,0,0-.46,1.42,1.28,1.28,0,0,0,1.35.73c.46,0,.9-.11,1.37-.12a2.62,2.62,0,0,1,1.26.23,1.76,1.76,0,0,1,.37.29.81.81,0,0,1,.2.64c-.17.69-.86,1.1-1.4,1.46a15.09,15.09,0,0,0-2.59,1.81,3.37,3.37,0,0,0-1,3,1.49,1.49,0,0,0,1.42,1.19,5.33,5.33,0,0,0,2.37-.7,7.13,7.13,0,0,0,2.89-2.92,22.59,22.59,0,0,1,1.64-3.35,4.54,4.54,0,0,1,3.58-1.77,26.84,26.84,0,0,0,.91-4.16,6.08,6.08,0,0,0-.17-3.2A17.35,17.35,0,0,0,414.26,89.58Z" style="fill:#f28f8f"></path><path d="M451.48,84.78l-.63-.29a11.31,11.31,0,0,0-2.15-1,5,5,0,0,0-2,.1,17.79,17.79,0,0,0-3.2,1,8.12,8.12,0,0,1-3.15,1,6.93,6.93,0,0,1-3.21-.76,16.31,16.31,0,0,0-3.2-1.43,5.68,5.68,0,0,0-2-.16c-1.24.12-2.52.63-3.68.19a5.59,5.59,0,0,1-2.14-2,4.64,4.64,0,0,0-1.59-1.4c-.58-.25-1.2-.21-1.52-.88a2.63,2.63,0,0,1,.16-2c.22-.56.89-.53,1.45-.53a7.66,7.66,0,0,1,1.43.07,8.51,8.51,0,0,1,1.28.38,32.63,32.63,0,0,0,5.28,1.65,13.66,13.66,0,0,0,2.55.16c.92,0,1.86.13,2.78.19a65.17,65.17,0,0,0,7.13.13c1.77-.08,3.54-.18,5.32-.15A31.72,31.72,0,0,1,451.48,84.78Z" style="fill:#ffa8a7"></path><path d="M416.2,79.11c-.33.67-.94.63-1.52.88a4.47,4.47,0,0,0-1.59,1.4,5.69,5.69,0,0,1-2.15,2c-1.16.44-2.45-.07-3.69-.19a5.57,5.57,0,0,0-1.95.16,16.14,16.14,0,0,0-3.21,1.43,6.9,6.9,0,0,1-3.21.76,8.06,8.06,0,0,1-3.15-1,17.69,17.69,0,0,0-3.19-1,5,5,0,0,0-2-.1,11.23,11.23,0,0,0-2.14,1l-.72.33h0a31.21,31.21,0,0,1,1.11-5.76c1.8,0,3.59.07,5.39.15a65,65,0,0,0,7.12-.13c.91-.06,1.87-.2,2.78-.19a13.71,13.71,0,0,0,2.55-.16,33.05,33.05,0,0,0,5.29-1.65,7.76,7.76,0,0,1,1.27-.38,7.64,7.64,0,0,1,1.44-.07c.54,0,1.22,0,1.45.53A2.73,2.73,0,0,1,416.2,79.11Z" style="fill:#ffa8a7"></path><path d="M451,94.18h0l-.06.18h0a13,13,0,0,1-4-1.2l-.13-.06a8.89,8.89,0,0,0-3.54-.89l-.64,0a15.82,15.82,0,0,0-2.76.64c-.45.13-.91.27-1.38.38a9.49,9.49,0,0,1-2.5.35,6.62,6.62,0,0,1-1.1-.09,14.12,14.12,0,0,1-2.82-.93l-1-.43a7.08,7.08,0,0,0-2.57-.56,4.53,4.53,0,0,0-1,.1,3.12,3.12,0,0,0-2,1.39,1.43,1.43,0,0,0,0,1.29c.5,1.19,2.38,1.5,3.51,1.69l.21,0c.33.07.66.12,1,.17a17.63,17.63,0,0,1,2.93.64c1.38.46,2.11,1.09,2.18,1.88a1.38,1.38,0,0,1-1.26,1.41,1.62,1.62,0,0,1-.3,0,5.77,5.77,0,0,1-.8-.07,7.31,7.31,0,0,0-.91-.08,1.74,1.74,0,0,0-1.21.38.66.66,0,0,0-.24.56c.07.7,1.27,1.48,2.56,2.2l.29.18a4.49,4.49,0,0,1,2,2.1,2.73,2.73,0,0,1-.06,2.33,1.82,1.82,0,0,1-1.63.92,6.64,6.64,0,0,1-4.18-2.34,11.86,11.86,0,0,1-1.43-2.52c-.19-.41-.38-.82-.6-1.22-.43-.81-1.64-2.7-3.58-2.7h-.24l0,.23c.37,2.24.7,5.43-.77,7.22a4.84,4.84,0,0,1-6.82,0c-1.48-1.8-1.14-5-.77-7.23l0-.23h-.24c-1.95,0-3.18,1.89-3.61,2.7-.21.4-.4.81-.59,1.22a12.3,12.3,0,0,1-1.43,2.52,6.64,6.64,0,0,1-4.19,2.34,1.82,1.82,0,0,1-1.62-.92,2.69,2.69,0,0,1-.07-2.33,4.49,4.49,0,0,1,2-2.1l.3-.16c1.28-.74,2.48-1.52,2.56-2.22a.67.67,0,0,0-.25-.56,1.71,1.71,0,0,0-1.2-.38,7.14,7.14,0,0,0-.91.08,5.91,5.91,0,0,1-.8.07,1.51,1.51,0,0,1-.3,0,1.37,1.37,0,0,1-1.26-1.41c.07-.79.8-1.42,2.18-1.88a17.41,17.41,0,0,1,2.93-.64c.33,0,.67-.1,1-.17l.22,0c1.13-.19,3-.5,3.51-1.69a1.43,1.43,0,0,0-.05-1.29,3.14,3.14,0,0,0-2-1.39,4.59,4.59,0,0,0-1-.1,7.17,7.17,0,0,0-2.58.56l-1,.43a14,14,0,0,1-2.81.93,6.74,6.74,0,0,1-1.11.09,9.55,9.55,0,0,1-2.5-.35c-.45-.11-.91-.24-1.34-.38a18.66,18.66,0,0,0-2.8-.64c-.22,0-.42,0-.63,0a8.71,8.71,0,0,0-3.53.89l-.15.06a12.34,12.34,0,0,1-4,1.2h0l0-.2h0A12.52,12.52,0,0,0,391.74,93a12.85,12.85,0,0,1,2.51-1,6.23,6.23,0,0,1,1.3-.13,14.33,14.33,0,0,1,3.61.64,15.47,15.47,0,0,0,3.38.68h.28a10,10,0,0,0,3.85-1,10.88,10.88,0,0,1,3.37-1h.36c1.75,0,3.72.83,3.9,2.64.21,2.13-3,2.58-4.95,2.85l-.64.09-.28,0a6.75,6.75,0,0,0-3.8,1.43,1.36,1.36,0,0,0-.48,1,.74.74,0,0,0,.4.57,1.86,1.86,0,0,0,.89.15h.1c.23,0,.45,0,.68-.06a3.7,3.7,0,0,1,.66-.07c.72,0,1.59.28,1.84.94.35.86-.81,1.6-1.52,2l-.1.07-.64.39a5.84,5.84,0,0,0-2.25,1.89c-.43.72-.81,2.14,0,2.89a1.45,1.45,0,0,0,1,.38,6,6,0,0,0,3.05-1.36,8.62,8.62,0,0,0,2.26-3.24c1-2.07,2.23-4.19,4.23-4.19a2.45,2.45,0,0,1,.46,0l.18,0,0-.2c.12-.64.24-1.24.36-1.83l.13-.57a17.27,17.27,0,0,0,.45-2.73,4.54,4.54,0,0,0-1.39-3,7.25,7.25,0,0,1-1.8-3.48c-.41-2.34.62-4.56,1.52-6.51a2.85,2.85,0,0,0,.25-.63.93.93,0,0,0,0-.24.28.28,0,0,0-.11-.22c-.28-.2-.89.46-1.05.65a9.09,9.09,0,0,0-.73.91l-.28.37a4,4,0,0,1-2.41,1.69,3.91,3.91,0,0,1-.7,0,9.65,9.65,0,0,1-1.85-.23l-1-.16a3.28,3.28,0,0,0-.62,0,5.46,5.46,0,0,0-2.89.91l-.43.25a8.81,8.81,0,0,1-2.51,1.17,4.35,4.35,0,0,1-1,.11,5.17,5.17,0,0,1-1.91-.37,14.93,14.93,0,0,1-1.92-.87A8.39,8.39,0,0,0,392,83.48a3.62,3.62,0,0,0-1.14.17,11.88,11.88,0,0,0-1.75.66c-.41.19-1,.45-1.46.59,0-.1,0-.2,0-.3l.3-.12.25-.12.47-.23a7.67,7.67,0,0,1,3.33-1h.17a8.94,8.94,0,0,1,3.6,1.21,15.7,15.7,0,0,0,2.31,1,4.22,4.22,0,0,0,1.21.18,4.76,4.76,0,0,0,2.25-.61c.35-.19.67-.39,1-.59a10.55,10.55,0,0,1,1.86-1A4.58,4.58,0,0,1,406,83a8.33,8.33,0,0,1,1.65.18l.27.05a10.18,10.18,0,0,0,1.66.21,2.78,2.78,0,0,0,1.69-.51,6.57,6.57,0,0,0,1.29-1.42,5.08,5.08,0,0,1,1.79-1.72,3.51,3.51,0,0,0,1-.61A1.85,1.85,0,0,0,416,78a1.25,1.25,0,0,0-.24-1,1.28,1.28,0,0,0-.82-.22,10.28,10.28,0,0,0-3.55,1c-3.35,1.44-8.21,1.69-17.19,1.69l-5.53,0h0l.16-.59h0l5.36,0c8.89,0,13.69-.25,16.94-1.66a10.74,10.74,0,0,1,3.8-1.07,1.77,1.77,0,0,1,1.22.39c.71.65.42,1.86.15,2.73a17.61,17.61,0,0,1-.89,2.18l-.06.13c-.88,1.89-1.86,4-1.48,6.16A6.63,6.63,0,0,0,415.5,91,5.16,5.16,0,0,1,417,94.41a16.58,16.58,0,0,1-.47,2.81l0,.2c-.64,3-1.6,7.56.07,9.63a3.62,3.62,0,0,0,3,1.18,3.56,3.56,0,0,0,2.95-1.18c1.69-2.07.72-6.62.08-9.63l0-.24a15.87,15.87,0,0,1-.46-2.77A5.15,5.15,0,0,1,423.62,91a6.71,6.71,0,0,0,1.68-3.24c.38-2.14-.6-4.27-1.48-6.14l-.09-.21a16.19,16.19,0,0,1-.87-2.1c-.26-.87-.55-2.08.16-2.73a1.77,1.77,0,0,1,1.22-.38A10.58,10.58,0,0,1,428,77.26c3.27,1.41,8.18,1.67,17.28,1.67l5,0h0l.06.23v0l0,.1.07.24h0l-5.18,0c-9.21,0-14.19-.26-17.54-1.7a10.22,10.22,0,0,0-3.55-1,1.3,1.3,0,0,0-.82.22,1.21,1.21,0,0,0-.26.88,3.79,3.79,0,0,0,.07.6,1.86,1.86,0,0,0,.27.45,2.56,2.56,0,0,0,.85.68c.19.09.39.15.56.24a2.4,2.4,0,0,1,.53.37,7.83,7.83,0,0,1,1.12,1.31,6.6,6.6,0,0,0,1.3,1.42,2.78,2.78,0,0,0,1.69.51,10.32,10.32,0,0,0,1.66-.21l.26-.05a8.31,8.31,0,0,1,1.64-.18,4.55,4.55,0,0,1,1.6.27,10.31,10.31,0,0,1,1.87,1c.33.2.66.4,1,.59a4.76,4.76,0,0,0,2.24.61,4.17,4.17,0,0,0,1.21-.18,15.82,15.82,0,0,0,2.32-1,8.94,8.94,0,0,1,3.6-1.21h.16a7.63,7.63,0,0,1,3.33,1l.48.23.54.25,0,.3c-.41-.14-1-.41-1.41-.57a12.11,12.11,0,0,0-1.77-.69,3.82,3.82,0,0,0-1.15-.17,8.34,8.34,0,0,0-3.72,1.24,14.93,14.93,0,0,1-1.92.87,5.22,5.22,0,0,1-1.92.37,4.33,4.33,0,0,1-.95-.11,8.64,8.64,0,0,1-2.5-1.17l-.44-.25a5.48,5.48,0,0,0-2.89-.91,3.44,3.44,0,0,0-.63,0l-1,.16a9.55,9.55,0,0,1-1.84.23,4,4,0,0,1-.71,0,4.1,4.1,0,0,1-2.41-1.69l-.26-.37c-.24-.3-.47-.62-.74-.92a2.08,2.08,0,0,0-.85-.58.29.29,0,0,0-.3,0,.25.25,0,0,0-.05.21,2.12,2.12,0,0,0,.3.79c.91,1.95,1.94,4.17,1.52,6.51a7.08,7.08,0,0,1-1.8,3.48,4.66,4.66,0,0,0-1.39,3,16.17,16.17,0,0,0,.46,2.7l.13.6c.11.59.24,1.19.35,1.83l0,.2.18,0a2.53,2.53,0,0,1,.46,0c2,0,3.27,2.12,4.24,4.19a8.4,8.4,0,0,0,2.26,3.24,6,6,0,0,0,3.05,1.36,1.57,1.57,0,0,0,1.06-.38c.81-.75.43-2.17,0-2.89a5.81,5.81,0,0,0-2.24-1.89l-.64-.39-.1-.07c-.71-.44-1.87-1.18-1.53-2a2,2,0,0,1,1.8-.94,4,4,0,0,1,.71.07c.23,0,.45.06.68.06h.1a1.8,1.8,0,0,0,.88-.15.72.72,0,0,0,.4-.57,1.38,1.38,0,0,0-.47-1c-.95-1-2.54-1.23-3.81-1.43l-.27,0-.64-.09c-1.93-.27-5.17-.72-5-2.85.17-1.81,2.15-2.64,3.9-2.64h.36a10.88,10.88,0,0,1,3.37,1,9.92,9.92,0,0,0,3.84,1h.29a16.39,16.39,0,0,0,3.36-.66,13.74,13.74,0,0,1,3.63-.66,6.1,6.1,0,0,1,1.3.13,13.63,13.63,0,0,1,2.5,1A12.44,12.44,0,0,0,451,94.18Z" style="fill:#f28f8f"></path><path d="M417.4,103.1v.13a3,3,0,0,0,.74,2.31,2,2,0,0,0,2.94-.16,3.21,3.21,0,0,0,.45-2.23A39.82,39.82,0,0,0,421,98c-.15-.84-.34-3.59-1.39-3.8s-1.48,2.4-1.6,3.05A33.33,33.33,0,0,0,417.4,103.1Z" style="fill:#455a64"></path><path d="M418.56,75.31a2.31,2.31,0,0,0-.36.25c-.66.58-.59,1.38-.59,2.19A10.73,10.73,0,0,1,416.8,82c-.42,1-1,1.86-1.33,2.85a6,6,0,0,0-.28,1.78,11.8,11.8,0,0,0,.52,3,11.08,11.08,0,0,1,.49,3A4.28,4.28,0,0,1,415,95.55a5,5,0,0,1-2.92,1.35c-.71.1-1.41.16-2.12.23-.45.05-.91.08-1.36.16s-.87.12-1.09.51a.49.49,0,0,0,.1.6,1.17,1.17,0,0,0,.45.21c.57.15,1.37.07,1.8.55a2,2,0,0,1,.13,2.23,3.66,3.66,0,0,1-.38.5,7.08,7.08,0,0,1-1.26,1.06,13.36,13.36,0,0,0-1.34.87,2,2,0,0,0-.78,1.34.79.79,0,0,0,.07.43c.34.71,1.38.29,1.85,0a5.6,5.6,0,0,0,1.16-1.31,12.7,12.7,0,0,0,1.09-1.71c.12-.25.23-.51.35-.76a6,6,0,0,1,2.78-3.08,7.61,7.61,0,0,1,1.63-.4c.55-.08,1.2.09,1.7-.25.77-.54.51-1.94,1.32-2.41a.58.58,0,0,1,.54,0c.24.13.28.45.32.73a1.72,1.72,0,0,0,.43,1,.79.79,0,0,0,1,.12,1.56,1.56,0,0,0,.38-.69.76.76,0,0,1,.52-.55,1,1,0,0,1,.34,0c.63.23.9.79,1.45,1.12a14.8,14.8,0,0,0,1.73.75,5.72,5.72,0,0,1,1.86,1.2,8.72,8.72,0,0,1,1.53,2.51l.57,1.23a5.68,5.68,0,0,0,2.86,2.91,2.34,2.34,0,0,0,.77.22.72.72,0,0,0,.6-.2.69.69,0,0,0,.13-.44,2.05,2.05,0,0,0-.6-1.39,6.25,6.25,0,0,0-1.22-.95l-1.17-.76a3.68,3.68,0,0,1-.83-.84A1.83,1.83,0,0,1,429,100a1.8,1.8,0,0,1,.86-1,4.54,4.54,0,0,1,1.3-.44c.27-.05.59-.15.65-.42s-.27-.55-.57-.66a15.49,15.49,0,0,0-2.89-.52,12.59,12.59,0,0,1-3.19-.94,4.08,4.08,0,0,1-1.25-.79,8.11,8.11,0,0,1-.72-1.08,3.18,3.18,0,0,1-.51-1.72,7.44,7.44,0,0,1,.58-2.57A10.33,10.33,0,0,0,424,87.3a8.51,8.51,0,0,0-1-4.11,12.9,12.9,0,0,1-1.34-4,16,16,0,0,0-.18-2.77,2.19,2.19,0,0,0-.33-.73,1.75,1.75,0,0,0-.94-.58A2.24,2.24,0,0,0,418.56,75.31Z" style="fill:#ffbda7"></path><path d="M394.44,98.19a.41.41,0,1,0,0,.82.41.41,0,0,0,0-.82Zm17.95,10.52a.4.4,0,0,0-.4.41.41.41,0,1,0,.81,0A.41.41,0,0,0,412.39,108.71Zm13.38,7.57a.41.41,0,1,0,0,.81.41.41,0,1,0,0-.81Zm8.42-4.29a.41.41,0,1,0,.41.4A.4.4,0,0,0,434.19,112Zm3.95-9.32a.42.42,0,0,0-.41.41.41.41,0,0,0,.41.41.41.41,0,0,0,.41-.41A.41.41,0,0,0,438.14,102.67Zm-39.75-.84a.7.7,0,1,0,.7.7A.7.7,0,0,0,398.39,101.83Zm9.9,11.67a.7.7,0,1,0,.7.7A.7.7,0,0,0,408.29,113.5Zm10-.7a.7.7,0,1,0,.7.7A.7.7,0,0,0,418.33,112.8Zm19.81-17.2a.7.7,0,1,0,.7.7A.7.7,0,0,0,438.14,95.6Zm6.29,4.3a.7.7,0,1,0,.7.7A.7.7,0,0,0,444.43,99.9ZM427.37,108a.7.7,0,1,0,.7.7A.7.7,0,0,0,427.37,108Z" style="fill:#FF81AE;opacity:0.4"></path><path d="M419.47,64.17a.49.49,0,0,0-.49.49v5.61a.5.5,0,0,0,1,0V64.66A.49.49,0,0,0,419.47,64.17Zm-5.6,2.69a.49.49,0,1,0-.81.56L416,71.63a.48.48,0,0,0,.4.21.47.47,0,0,0,.28-.09.49.49,0,0,0,.13-.68Zm11.89-.13a.49.49,0,0,0-.68.13l-2.91,4.21a.49.49,0,0,0,.13.68.47.47,0,0,0,.28.09.48.48,0,0,0,.4-.21l2.91-4.21A.5.5,0,0,0,425.76,66.73Z" style="fill:#e0e0e0"></path><path d="M419.49,54.38A33.62,33.62,0,0,0,414,121.16l3.8,9.73a2,2,0,0,0,3.64,0l3.75-9.75a33.62,33.62,0,0,0-5.74-66.75Zm32.15,33.53A32.05,32.05,0,0,1,443,109.84l-2.65,2.53a32.05,32.05,0,0,1-45.29-45.08l2.53-2.66a32,32,0,0,1,54,23.28Z" style="fill:#455a64"></path></g></g></svg>
